<?xml version="1.0" encoding="utf-8"?>
<!-- Generator: Adobe Illustrator 23.0.6, SVG Export Plug-In . SVG Version: 6.00 Build 0)  -->
<svg version="1.0" id="Capa_1" xmlns="http://www.w3.org/2000/svg" xmlns:xlink="http://www.w3.org/1999/xlink" x="0px" y="0px"
	 viewBox="0 0 360 360" style="enable-background:new 0 0 360 360;" xml:space="preserve">
<path d="M128.0203,39.6548c0,14.5414-8.9608,26.9828-21.6582,32.1246v270.224c0,7.1743-5.8207,12.9949-12.9949,12.9949
	c-7.1743,0-12.9949-5.8206-12.9949-12.9949V71.7794c-12.6975-5.1417-21.6582-17.5831-21.6582-32.1246
	c0-19.1384,15.5147-34.6531,34.6531-34.6531C112.5056,5.0016,128.0203,20.5164,128.0203,39.6548z M192.9949,141.3813V21.4197
	c0-6.9118-5.8207-12.5195-12.9949-12.5195s-12.9949,5.6077-12.9949,12.5195v119.9617
	c-12.6974,5.1417-21.6582,17.5831-21.6582,32.1246c0,14.5414,8.9608,26.9828,21.6582,32.1246v132.9498
	c0,6.9118,5.8207,12.5195,12.9949,12.5195s12.9949-5.6077,12.9949-12.5195V205.6305c12.6974-5.1417,21.6582-17.5832,21.6582-32.1246
	C214.6531,158.9645,205.6924,146.5231,192.9949,141.3813z M279.6277,288.2223V17.9949C279.6277,10.8206,273.8071,5,266.6328,5
	c-7.1743,0-12.9949,5.8206-12.9949,12.9949v270.2274c-12.6974,5.1417-21.6582,17.5831-21.6582,32.1246
	c0,19.1384,15.5148,34.6531,34.6531,34.6531c19.1384,0,34.6531-15.5148,34.6531-34.6531
	C301.2859,305.8054,292.3253,293.364,279.6277,288.2223z"/>
</svg>
