<?xml version="1.0" encoding="utf-8"?>
<!-- Generator: Adobe Illustrator 23.0.6, SVG Export Plug-In . SVG Version: 6.00 Build 0)  -->
<svg version="1.0" id="Capa_1" xmlns="http://www.w3.org/2000/svg" xmlns:xlink="http://www.w3.org/1999/xlink" x="0px" y="0px"
	 viewBox="0 0 360 360" style="enable-background:new 0 0 360 360;" xml:space="preserve">
<style type="text/css">
	.st0{fill:#37E2A4;}
</style>
<path class="st0" d="M242.3743,232.4846h0.0744H242.3743z"/>
<path class="st0" d="M51.9875,232.4846h0.0744H51.9875z"/>
<path d="M328.595,157.2484l-49.8278-13.6469l-29.8446-39.0553c-8.2179-10.7465-21.2475-17.1608-34.8572-17.1608H111.8292
	c-0.0744,0-0.145,0-0.2194,0c-14.8962,0-29.0303,7.82-36.9097,20.4406l-23.0992,36.8465l-25.6465,11.7133
	c-12.8139,5.8678-21.0392,18.7598-20.9537,32.8046v22.549c0,19.9832,16.0378,36.2404,35.7533,36.2404h8.3257
	c0.0855,0,0.1674,0,0.2491-0.0037c1.9783,4.7225,4.8861,9.0657,8.6269,12.8102c7.5746,7.5746,17.6666,11.7728,28.4502,11.8286
	c22.1287,0,40.1299-18.0012,40.1299-40.13c0-22.1287-18.0012-40.1299-40.1299-40.1299c-22.1213,0-40.1225,17.9938-40.1299,40.1151
	c-0.0074,1.3721,0.0558,2.7368,0.1859,4.0866H40.754c-13.4163,0-24.3301-11.1332-24.3301-24.8172v-22.5824
	c-0.0558-9.5975,5.5517-18.3843,14.2827-22.3854l27.197-12.4197c1.0152-0.4648,1.8741-1.2159,2.4654-2.1605l24.014-38.3041
	c5.8417-9.3558,16.525-15.0748,27.4164-15.0785h102.266c10.0734,0,19.7117,4.7374,25.7841,12.6763l31.0085,40.5873
	c0.7623,0.9928,1.8257,1.7105,3.0306,2.0377l51.6833,14.1526c10.6014,2.9153,18.0049,12.6614,18.0049,23.7017v19.775
	c0,13.684-10.9138,24.8172-24.3301,24.8172h-2.5286c0.1339-1.3387,0.2045-2.6959,0.2045-4.0718
	c0-22.1287-18.0012-40.1299-40.13-40.1299c-22.1213,0-40.1225,17.9938-40.1299,40.1151
	c-0.0521,10.6721,4.0941,20.7306,11.6797,28.3163c7.5746,7.5746,17.6666,11.7728,28.4502,11.8286
	c16.67,0,30.9974-10.2184,37.0511-24.7169c0.3123,0.0558,0.6359,0.0818,0.9631,0.0818h4.4399
	c19.7155,0,35.7533-16.2573,35.7533-36.2404v-19.775C355,175.7999,344.1458,161.5247,328.595,157.2484z M57.6992,232.4846
	c0-15.8296,12.8771-28.7067,28.7067-28.7067c15.8297,0,28.7068,12.8771,28.7068,28.7067c0,15.8297-12.8771,28.7068-28.6771,28.7068
	c-7.7233-0.0409-14.9706-3.0529-20.3996-8.4819c-5.4178-5.4178-8.3778-12.5871-8.3368-20.1951
	C57.6992,232.5032,57.6992,232.4958,57.6992,232.4846z M276.8224,261.1914c-7.7233-0.0409-14.9707-3.0529-20.3997-8.4819
	c-5.4178-5.4178-8.3777-12.5871-8.3369-20.1951c0-0.0112,0-0.0186,0-0.0298c0-15.8296,12.8771-28.7067,28.7067-28.7067
	c15.8297,0,28.7068,12.8771,28.7068,28.7067C305.4995,248.3143,292.6223,261.1914,276.8224,261.1914z M223.0865,242.268
	c0,3.1533-2.5583,5.7116-5.7116,5.7116h-78.4825c-3.1533,0-5.7116-2.5583-5.7116-5.7116c0-3.1533,2.5583-5.7116,5.7116-5.7116
	h78.4825C220.5282,236.5564,223.0865,239.1147,223.0865,242.268z"/>
</svg>
