<?xml version="1.0" encoding="utf-8"?>
<!-- Generator: Adobe Illustrator 23.0.6, SVG Export Plug-In . SVG Version: 6.00 Build 0)  -->
<svg version="1.0" id="Capa_1" xmlns="http://www.w3.org/2000/svg" xmlns:xlink="http://www.w3.org/1999/xlink" x="0px" y="0px"
	 viewBox="0 0 360 360" style="enable-background:new 0 0 360 360;" xml:space="preserve">
<style type="text/css">
	.st0{fill:#37E2A4;}
</style>
<path class="st0" d="M242.3743,232.4846h0.0744H242.3743z"/>
<path class="st0" d="M51.9875,232.4846h0.0744H51.9875z"/>
<path d="M252.5877,355c-1.2363,0-2.7769,0-4.8631-0.6906c-5.3074-1.5937-9.76-6.0463-11.4068-11.5517l-32.4771-120.1194
	l-19.8147,19.409l-1.7965,52.9872c-0.8355,8.5286-3.791,15.1544-8.8087,20.172l-5.6889,5.6889
	c-3.3419,3.8538-8.4513,5.8821-14.1982,5.3026c-5.9787-0.6037-11.1219-4.5589-13.4255-10.3251l-27.2856-70.3341l-67.7263-25.7016
	c-5.3799-2.376-8.9632-6.3844-10.4796-11.4406c-1.2991-6.3264,0.4443-12.2858,4.385-16.2265l5.375-5.375
	c5.2012-5.6116,12.5224-8.8135,20.4232-8.8135l52.4606-1.7917l19.5686-19.5684l-119.511-32.6703
	c-5.631-1.6854-9.7504-5.9207-11.4744-11.6724c-1.3136-6.394,0.4781-12.6238,4.3898-16.5356l6.9542-6.9542
	c11.4261-11.4262,27.049-17.9795,42.8698-17.9795l162.6077,0.3091l48.4042-48.1048c12.1264-12.1312,29.0386-18.6798,46.3227-17.9602
	l5.206,0.3236c16.352,1.2266,29.3284,13.5945,30.951,29.4105l0.6326,5.9883c2.1539,18.0133-4.4575,36.5192-17.6994,49.4039
	l-46.7574,47.0616v51.6447c0,4.0953-3.3226,7.4178-7.4178,7.4178s-7.4178-3.3226-7.4178-7.4178v-54.7016
	c0-1.9607,0.7727-3.8393,2.1539-5.2301l49.003-49.3218c10.045-9.7649,15.0143-23.6395,13.3917-37.1954l-0.6471-6.1139
	c-0.8886-8.6831-8.1277-15.4635-17.2068-16.1444l-4.9597-0.3091c-13.0005-0.5602-25.861,4.4333-35.0801,13.6476l-50.5967,50.2828
	c-1.3908,1.3812-3.2694,2.1587-5.2301,2.1587c-0.0048,0-0.0097,0-0.0145,0L60.043,85.6452c-11.8994,0-23.7023,4.9694-32.366,13.6331
	l-6.9542,6.9542c-0.2801,0.2946-0.6954,1.4826-0.4974,2.463c0.0338-0.0676,0.3477,0.7437,1.1735,0.99l131.6615,35.9929
	c2.5499,0.7003,4.5347,2.6996,5.2157,5.2543c0.6761,2.5547-0.058,5.2784-1.9269,7.1474l-30.6661,30.6661
	c-1.3281,1.3281-3.1149,2.1056-4.9935,2.1684l-55.6385,1.8979c-4.0325,0.0048-7.4033,1.4826-9.9918,4.2739l-5.5682,5.573
	c-0.3719,0.3719-0.6664,1.2991-0.4974,2.1539c0-0.0048,0.0048-0.0048,0.0048-0.0048c0.0435,0,0.4443,0.7389,1.7386,1.3136
	l70.4403,26.7206c1.9655,0.7437,3.5254,2.2939,4.2836,4.2546l28.4495,73.3427c0.2463,0.6133,0.7968,0.961,1.1011,0.9948
	c1.1204,0.1111,1.4874-0.2077,1.8883-0.6664l6.0318-6.0511c2.5692-2.5692,4.0421-6.0608,4.5057-10.6728l1.8641-55.4695
	c0.0628-1.9076,0.8596-3.7137,2.2215-5.0466l30.98-30.3474c1.8834-1.8448,4.583-2.545,7.1425-1.8593
	c2.5402,0.6906,4.5202,2.6803,5.2108,5.2205l35.7272,132.1493c0.1738,0.5699,0.8451,1.2411,1.613,1.473
	c0.7823,0,1.5212-0.0869,2.1056-0.6713l6.9542-6.9542c8.7893-8.7942,13.6331-20.4038,13.6331-32.6944v-74.9461
	c0-4.0953,3.3226-7.4178,7.4178-7.4178s7.4178,3.3226,7.4178,7.4178v74.9461c0,16.2555-6.3843,31.5885-17.9795,43.1837
	l-6.9542,6.9542C261.5557,353.218,257.2238,355,252.5877,355z"/>
</svg>
