<?xml version="1.0" encoding="utf-8"?>
<!-- Generator: Adobe Illustrator 23.0.6, SVG Export Plug-In . SVG Version: 6.00 Build 0)  -->
<svg version="1.0" id="Capa_1" xmlns="http://www.w3.org/2000/svg" xmlns:xlink="http://www.w3.org/1999/xlink" x="0px" y="0px"
	 viewBox="0 0 360 360" style="enable-background:new 0 0 360 360;" xml:space="preserve">
<path d="M346.8842,226.5026V101.1538c-0.032-20.3606-16.5295-36.8582-36.8901-36.8902H70.4509
	c-31.6422,0.0374-57.2869,25.6735-57.335,57.3156v104.9136c-5.1124,3.8247-8.1205,9.8373-8.1158,16.222v0.7863
	c0.0107,11.1798,9.071,20.24,20.2507,20.2507h26.027c3.5223,20.8886,23.3112,34.9668,44.1998,31.4445
	c16.108-2.7162,28.7283-15.3364,31.4444-31.4445h106.1563c3.5223,20.8886,23.3112,34.9668,44.1997,31.4445
	c16.108-2.7162,28.7283-15.3364,31.4445-31.4445h26.027c11.1797-0.0107,20.2401-9.0709,20.2507-20.2507v-0.7863
	C355.0015,236.3336,351.9938,230.3252,346.8842,226.5026z M51.2777,250.9666h-26.027c-4.123,0-7.4654-3.3423-7.4654-7.4653
	c0-0.0033,0-0.0065,0-0.0098v-0.7766c0.0054-4.117,3.3387-7.4547,7.4557-7.4654h32.5313
	C54.4525,239.9332,52.2325,245.3057,51.2777,250.9666z M89.0998,282.9153v0.0097c-14.1276-0.0107-25.5717-11.4722-25.561-25.5998
	c0.0107-14.1277,11.4722-25.5717,25.5999-25.561c14.1201,0.0107,25.5609,11.4603,25.561,25.5804
	C114.6782,271.4695,103.2246,282.91,89.0998,282.9153z M270.9002,282.9153l0.0388,0.0097
	c-14.1276,0-25.5804-11.4528-25.5804-25.5804c0-14.1277,11.4528-25.5804,25.5804-25.5804c14.1277,0,25.5804,11.4527,25.5804,25.5804
	C296.498,271.4771,285.0326,282.9208,270.9002,282.9153z M286.8115,222.3961c-19.2507-8.8017-41.9916-0.3311-50.7933,18.9196
	c-1.3953,3.0518-2.3839,6.2736-2.9401,9.5829v0.0583H126.9219c-3.5092-20.8745-23.276-34.9518-44.1505-31.4426
	c-3.3093,0.5563-6.5311,1.5448-9.5829,2.9401H25.9012V121.5792c0.0268-24.593,19.9567-44.5229,44.5497-44.5497h239.5238
	c10.8694-0.004,20.4037,7.25,23.299,17.7267h-16.7268c-7.9575,0.0107-14.4056,6.4588-14.4163,14.4163v49.2969
	c0.0107,7.9575,6.4588,14.4056,14.4163,14.4163h17.552v49.5104H286.8115z M334.0989,107.5416v52.5588h-17.552
	c-0.9007,0-1.6309-0.7302-1.6309-1.6309v-49.2969c0-0.9007,0.7302-1.6309,1.6309-1.6309H334.0989z M334.7978,250.9471h-26.0755
	c-0.9548-5.6609-3.1748-11.0334-6.4946-15.7172h32.5313c4.117,0.0107,7.4504,3.3483,7.4557,7.4654l0.0388,0.7961
	C342.2481,247.6069,338.9133,250.9418,334.7978,250.9471z M268.8325,94.7562H71.9653
	c-17.0323,0.0161-30.8358,13.8195-30.8518,30.8519v32.871c0.0107,7.9575,6.4589,14.4056,14.4163,14.4163h213.3124
	c7.9575-0.0161,14.4012-6.4686,14.4066-14.426v-49.2969C283.2381,101.2151,276.7899,94.7669,268.8325,94.7562z M92.6821,160.1003
	H55.5298c-0.9008,0-1.6309-0.7302-1.6309-1.6309h-0.0485v-32.871c0.016-9.9659,8.0909-18.0408,18.0568-18.0568h20.775V160.1003z
	 M155.7836,160.1003h-50.2579v-52.5587h50.2676L155.7836,160.1003z M218.8366,160.1003h-50.258l-0.0096-52.5587h50.2676V160.1003z
	 M270.4246,158.4694c0,0.9007-0.7302,1.6309-1.6309,1.6309h-37.1523v-52.5587h37.2008c0.9007,0,1.6309,0.7302,1.6309,1.6309
	L270.4246,158.4694z M326.4976,200.3785v5.7278c0,3.5333-2.8643,6.3975-6.3975,6.3975c-0.0098,0-0.0196,0-0.0294-0.0002
	c-3.5332-0.0215-6.38-2.9031-6.3583-6.4363v-5.6888c0.1309-3.3362,2.8056-6.0107,6.1418-6.1417
	C323.3848,194.0982,326.3589,196.848,326.4976,200.3785z"/>
</svg>
