<?xml version="1.0" encoding="utf-8"?>
<!-- Generator: Adobe Illustrator 23.0.6, SVG Export Plug-In . SVG Version: 6.00 Build 0)  -->
<svg version="1.0" id="Capa_1" xmlns="http://www.w3.org/2000/svg" xmlns:xlink="http://www.w3.org/1999/xlink" x="0px" y="0px"
	 viewBox="0 0 360 360" style="enable-background:new 0 0 360 360;" xml:space="preserve">
<path d="M327.9455,53.751v54.1091v18.0391v55.7933c0,7.001-5.6801,12.681-12.681,12.681c-7.001,0-12.6811-5.68-12.6811-12.681
	v-43.1122H57.4166v191.0577h245.1668v-67.2937c0-7.001,5.6801-12.681,12.6811-12.681c7.001,0,12.681,5.6801,12.681,12.681v79.9748
	c0,7.001-5.6801,12.681-12.681,12.681H44.7356c-7.001,0-12.681-5.6801-12.681-12.681V125.8992v-18.0391V53.751
	c0-7.001,5.68-12.681,12.681-12.681h32.4043V17.681C77.1399,10.68,82.82,5,89.821,5c7.001,0,12.681,5.68,12.681,12.681V41.07
	h154.996V17.681C257.498,10.68,263.178,5,270.179,5c7.001,0,12.681,5.68,12.681,12.681V41.07h32.4044
	C322.2654,41.07,327.9455,46.75,327.9455,53.751z"/>
</svg>
