<?xml version="1.0" encoding="utf-8"?>
<!-- Generator: Adobe Illustrator 23.0.6, SVG Export Plug-In . SVG Version: 6.00 Build 0)  -->
<svg version="1.0" id="Capa_1" xmlns="http://www.w3.org/2000/svg" xmlns:xlink="http://www.w3.org/1999/xlink" x="0px" y="0px"
	 viewBox="0 0 360 360" style="enable-background:new 0 0 360 360;" xml:space="preserve">
<path d="M130.4351,338.5525c-10.3943,0-20.3456-3.8682-28.0117-10.886l-83.9649-76.8552
	c-16.8773-15.4456-18.0388-41.7393-2.5932-58.6166c15.451-16.861,41.7447-18.0334,58.6166-2.5932l50.8911,46.5799l88.1626-112.7491
	c2.8309-3.625,8.0388-4.2571,11.6477-1.4262c3.6088,2.8255,4.2517,8.0388,1.4262,11.6477l-93.6893,119.8155
	c-1.4263,1.8206-3.544,2.9659-5.8509,3.1604c-2.296,0.1891-4.5867-0.5889-6.2885-2.1502l-57.5037-52.6361
	c-10.1188-9.2652-25.9048-8.5791-35.17,1.5559c-4.4894,4.9054-6.8017,11.2641-6.5045,17.9091
	c0.2917,6.6396,3.155,12.7714,8.0605,17.2608l83.9649,76.8553c5.1107,4.6785,11.9448,7.0502,18.8762,6.4451
	c6.8827-0.5727,13.2792-4.0248,17.5417-9.4759L333.135,78.257c8.4548-10.8157,6.537-26.4936-4.2733-34.9485
	c-10.7887-8.4332-26.4774-6.537-34.9538,4.2787l-26.6557,34.0895c-2.8255,3.6142-8.0443,4.2571-11.6477,1.4262
	c-3.6088-2.8255-4.2517-8.0388-1.4262-11.6477l26.6611-34.0949c14.1112-18.0172,40.2429-21.2154,58.2438-7.1258
	c18.0226,14.0896,21.2208,40.2212,7.1259,58.2438L163.1199,322.6206c-7.1042,9.0815-17.7633,14.8351-29.2489,15.7914
	C132.7204,338.5038,131.575,338.5525,130.4351,338.5525z"/>
</svg>
