<?xml version="1.0" encoding="utf-8"?>
<!-- Generator: Adobe Illustrator 23.0.6, SVG Export Plug-In . SVG Version: 6.00 Build 0)  -->
<svg version="1.0" id="Capa_1" xmlns="http://www.w3.org/2000/svg" xmlns:xlink="http://www.w3.org/1999/xlink" x="0px" y="0px"
	 viewBox="0 0 360 360" style="enable-background:new 0 0 360 360;" xml:space="preserve">
<path d="M300.3125,37.8125c12.0617,0,21.875,9.813,21.875,21.875v240.625c0,12.062-9.8133,21.875-21.875,21.875H59.6875
	c-12.0617,0-21.875-9.813-21.875-21.875V59.6875c0-12.062,9.8133-21.875,21.875-21.875H300.3125 M300.3125,5H59.6875
	C29.4845,5,5,29.4845,5,59.6875v240.625C5,330.5155,29.4845,355,59.6875,355h240.625C330.5155,355,355,330.5155,355,300.3125
	V59.6875C355,29.4845,330.5155,5,300.3125,5L300.3125,5z"/>
</svg>
