<?xml version="1.0" encoding="utf-8"?>
<!-- Generator: Adobe Illustrator 23.0.6, SVG Export Plug-In . SVG Version: 6.00 Build 0)  -->
<svg version="1.0" id="Capa_1" xmlns="http://www.w3.org/2000/svg" xmlns:xlink="http://www.w3.org/1999/xlink" x="0px" y="0px"
	 viewBox="0 0 360 360" style="enable-background:new 0 0 360 360;" xml:space="preserve">
<style type="text/css">
	.st0{fill:#37E2A4;}
</style>
<polygon class="st0" points="5,59.6875 5,300.3124 5.0001,300.3149 5.0001,59.6851 "/>
<path d="M300.3124,5H59.6875C29.4854,5,5.0014,29.4832,5.0001,59.6851v240.6298c0.0013,30.202,24.4853,54.6851,54.6874,54.6851
	h240.6249c30.2029,0,54.6875-24.4845,54.6875-54.6875V59.6875C354.9999,29.4846,330.5154,5,300.3124,5z M277.3813,123.2029
	L167.4723,263.7562c-3.7491,4.7958-9.346,7.8186-15.4128,8.3206c-0.6088,0.0534-1.2177,0.0748-1.8158,0.0748
	c-5.4474,0-10.7239-2.0294-14.772-5.7358l-50.3937-46.1319c-8.9081-8.1604-9.5169-22.0032-1.3672-30.9113
	c8.1604-8.8974,22.0032-9.5169,30.9113-1.3672l32.9514,30.1743l95.3506-121.936c7.4554-9.5169,21.1807-11.1938,30.7083-3.7491
	C283.1492,99.9287,284.8261,113.686,277.3813,123.2029z"/>
</svg>
