<?xml version="1.0" encoding="utf-8"?>
<!-- Generator: Adobe Illustrator 23.0.6, SVG Export Plug-In . SVG Version: 6.00 Build 0)  -->
<svg version="1.0" id="Capa_1" xmlns="http://www.w3.org/2000/svg" xmlns:xlink="http://www.w3.org/1999/xlink" x="0px" y="0px"
	 viewBox="0 0 360 360" style="enable-background:new 0 0 360 360;" xml:space="preserve">
<path d="M59.673,88.1647c3.0645-13.8511,11.3421-25.6825,23.306-33.3089c10.6063-6.7655,22.9822-9.5174,35.3066-7.9023
	c7.6264-16.9819,21.6725-30.3732,39.1474-37.135c17.6772-6.8354,36.9658-6.3903,54.3082,1.2839
	c16.0732,7.104,28.6882,19.6197,35.8952,35.4942c0.2833-0.0037,0.5849,0,0.8609-0.0037c20.1126,0,38.8199,11.6585,47.6862,29.7404
	c12.4237,25.3441,2.7408,55.8791-21.518,69.5978l-8.8552,79.7479c-0.6659,5.8752-5.614,10.301-11.5187,10.301h-148.426
	c-5.9047,0-10.8528-4.4258-11.515-10.2936l-1.7328-15.5913c-0.3421-3.1013,1.891-5.8936,4.996-6.2394
	c3.0609-0.3348,5.8936,1.8873,6.2394,4.996l1.7291,15.5802l148.7093,0.2465l9.4695-82.9707
	c0.2134-1.9204,1.3943-3.598,3.1308-4.4478c20.705-10.1501,29.2916-35.2477,19.1451-55.9527
	c-6.9789-14.2337-21.7093-23.4126-37.5544-23.4126c-1.5304-0.0515-2.6856,0.0589-4.0063,0.1803
	c-2.4796,0.195-4.8709-1.2324-5.7832-3.5906c-5.7502-14.8665-16.9451-26.6023-31.5247-33.0477
	c-14.5685-6.4418-30.7889-6.8207-45.6591-1.0742c-15.9334,6.1622-28.4785,18.8839-34.42,34.9019
	c-0.9823,2.6451-3.7709,4.1645-6.519,3.5538c-10.8896-2.406-22.0919-0.4341-31.5173,5.5662
	c-9.418,6.004-15.9334,15.319-18.3431,26.2233c-4.1976,18.9685,5.0695,38.1504,22.5444,46.645
	c1.7438,0.8461,2.9321,2.5311,3.1455,4.4588l2.8401,25.6053c0.3421,3.1013-1.8946,5.8936-4.996,6.2394
	c-3.0425,0.3237-5.89-1.8946-6.2394-4.996l-2.509-22.618C65.1325,134.5228,54.5703,111.2205,59.673,88.1647z M150.4006,248.1467
	c8.1976,0,14.8431,6.6455,14.8431,14.8426c0,8.1976-6.6455,14.8431-14.8431,14.8431c-8.1971,0-14.8426-6.6455-14.8426-14.8431
	C135.5663,254.7954,142.2068,248.155,150.4006,248.1467z M150.408,259.4483c-1.9554,0.0042-3.5465,1.5971-3.5483,3.5525
	c0,1.9411,1.5884,3.5299,3.541,3.5299s3.5414-1.5888,3.5414-3.5414C153.942,261.039,152.3574,259.452,150.408,259.4483z
	 M209.7494,248.1467c8.1976,0,14.8431,6.6455,14.8431,14.8426c0,8.1976-6.6455,14.8431-14.8431,14.8431
	c-8.1971,0-14.8426-6.6455-14.8426-14.8431C194.9151,254.7954,201.5556,248.155,209.7494,248.1467z M209.7568,259.4483
	c-1.9553,0.0042-3.5465,1.5971-3.5483,3.5525c0,1.9411,1.5884,3.5299,3.541,3.5299c1.9526,0,3.5414-1.5888,3.5414-3.5414
	C213.2908,261.039,211.7061,259.452,209.7568,259.4483z M297.0962,300.6918c2.1347,1.6905,2.8456,4.6161,1.7254,7.0975
	C288.4314,330.6713,261.4281,355,231.8252,355c-15.3852,0-36.7754-1.65-51.5504-15.0688
	C166.3212,353.0787,148.1781,355,131.9191,355c-29.4373,0-53.4266-23.7106-64.0955-47.2107
	c-0.8995-1.9825-0.6415-4.2983,0.6719-6.0348c1.1676-1.5433,2.9427-2.3559,4.7394-2.3554c1.2476,0,2.5058,0.3918,3.5773,1.2025
	c10.2118,7.6742,22.6378,11.8277,35.4119,11.8365c0.8301,0.0414,1.6555,0.0616,2.4814,0.0616
	c15.8161,0,30.7544-7.5464,40.1333-20.4047c1.1262-1.4274,2.8438-2.2602,4.6617-2.2602c0.0055,0,0.0115,0,0.017,0h40.7914
	c0.006,0,0.0115,0,0.0175,0c1.8174,0,3.5354,0.8328,4.6617,2.2602c9.8195,12.8845,25.0695,20.395,41.1814,20.395
	c0.7717,0,1.547-0.0175,2.3223-0.052c0.0506,0,0.1003,0,0.1508,0c14.5607,0,28.8294-4.102,41.168-11.8365
	c1.0604-0.8066,2.3228-1.2085,3.5846-1.2085C294.7058,299.3931,296.0155,299.8268,297.0962,300.6918z M278.6993,318.5033
	c-9.5928,3.4518-19.7494,5.2365-30.0568,5.2365c-0.5891,0.0308-1.5332,0.052-2.4732,0.052
	c-18.6222,0-36.5156-8.4196-48.4205-22.6552h-35.6087c-11.5169,14.2452-29.0299,22.6649-47.4346,22.6649
	c-0.9206,0-1.8408-0.0207-2.7647-0.0626c-8.1507-0.0381-16.2567-1.5272-23.8854-4.3227
	c10.6716,13.5793,26.1521,24.2823,43.8638,24.2823c13.7849,0,29.3895-1.4247,40.6056-11.9928
	c2.1742-2.0487,4.9619-3.076,7.7506-3.076c2.7201,0,5.4411,0.9767,7.5979,2.9358c11.9749,10.8754,30.8192,12.1331,43.9521,12.1331
	C249.5296,343.6984,267.0849,332.433,278.6993,318.5033z M157.2784,196.1925c0.309,0,0.6217-0.0258,0.9381-0.0773
	c3.0756-0.5114,5.1579-3.4251,4.6428-6.5043l-7.5344-45.2066c-0.515-3.0793-3.4214-5.1652-6.5043-4.6428
	c-3.0756,0.5114-5.1579,3.4251-4.6428,6.5043l7.5344,45.2066C152.172,194.2354,154.567,196.1925,157.2784,196.1925z
	 M202.4996,196.1925c2.7114,0,5.1063-1.9572,5.5662-4.72l7.5344-45.2066c0.5151-3.0793-1.5672-5.993-4.6428-6.5043
	c-3.094-0.5114-5.993,1.5672-6.5043,4.6428l-7.5344,45.2066c-0.515,3.0793,1.5672,5.993,4.6428,6.5043
	C201.8779,196.1668,202.1906,196.1925,202.4996,196.1925z"/>
</svg>
