<?xml version="1.0" encoding="utf-8"?>
<!-- Generator: Adobe Illustrator 23.0.6, SVG Export Plug-In . SVG Version: 6.00 Build 0)  -->
<svg version="1.0" id="Capa_1" xmlns="http://www.w3.org/2000/svg" xmlns:xlink="http://www.w3.org/1999/xlink" x="0px" y="0px"
	 viewBox="0 0 360 360" style="enable-background:new 0 0 360 360;" xml:space="preserve">
<style type="text/css">
	.st0{fill:#37E2A4;}
</style>
<polygon class="st0" points="5,59.6875 5,300.3124 5.0001,300.3149 5.0001,59.6851 "/>
<path d="M345.7895,308.9473c0,25.4342-20.6185,46.0527-46.0527,46.0527c-25.4341,0-46.0526-20.6185-46.0526-46.0527
	c0-2.0507,0.1479-4.0659,0.4077-6.0457l-161.85-89.7795c-8.2844,8.0001-19.5526,12.9304-31.9787,12.9304
	c-25.4342,0-46.0527-20.6185-46.0527-46.0526c0-25.4342,20.6185-46.0527,46.0527-46.0527c8.8721,0,17.1541,2.5148,24.1835,6.8618
	l169.2726-91.1468C254.4562,24.873,274.7689,5,299.7368,5c25.4342,0,46.0527,20.6185,46.0527,46.0526
	s-20.6185,46.0526-46.0527,46.0526c-15.8901,0-29.9003-8.048-38.1775-20.29l-158.7692,85.4957
	c2.2683,5.447,3.5257,11.4205,3.5257,17.6891c0,3.0298-0.301,5.9883-0.8594,8.8547l160.357,88.9543
	c8.4177-9.1658,20.4979-14.9143,33.9235-14.9143C325.171,262.8947,345.7895,283.5132,345.7895,308.9473z"/>
</svg>
