<?xml version="1.0" encoding="utf-8"?>
<!-- Generator: Adobe Illustrator 23.0.6, SVG Export Plug-In . SVG Version: 6.00 Build 0)  -->
<svg version="1.0" id="Capa_1" xmlns="http://www.w3.org/2000/svg" xmlns:xlink="http://www.w3.org/1999/xlink" x="0px" y="0px"
	 viewBox="0 0 360 360" style="enable-background:new 0 0 360 360;" xml:space="preserve">
<path d="M354.9952,113.8272c0.0064,0.6216,0.0064,1.2433,0,1.8649c0,66.1487-59.4988,120.0465-149.6208,201.9452l-25.3745,22.9232
	l-25.3745-23.0984C64.5024,235.7386,5.0047,181.8409,5.0047,115.6921C4.4898,63.0504,46.7465,19.9595,99.3882,19.4447
	c0.3097-0.0032,0.6206-0.0053,0.9314-0.0053s0.6216,0.0021,0.9324,0.0053c30.3027,0.2328,59.0203,13.5711,78.7479,36.5734
	c19.7276-23.0023,48.4452-36.3406,78.7479-36.5734c0.3151-0.0032,0.6376-0.0053,0.9517-0.0053c0.2542,0,0.4892,0.0726,0.7434,0.0748
	c6.1703,0.0481,12.2104,0.6366,18.0517,1.8072c0.3108,0.0619,0.6035,0.1591,0.9121,0.2243
	c5.8467,1.2326,11.5097,2.9607,16.9099,5.2112c0.2617,0.1089,0.5031,0.2478,0.7637,0.3589
	c5.4013,2.3081,10.5634,5.0681,15.3986,8.2916c0.2083,0.1389,0.3952,0.2991,0.6013,0.4401
	c4.8373,3.2801,9.3778,6.9661,13.5262,11.0579c0.1431,0.1421,0.267,0.2991,0.4091,0.4411
	c4.157,4.1506,7.9519,8.6654,11.2897,13.5241c0.0876,0.1271,0.1581,0.266,0.2446,0.3941c3.342,4.9185,6.2547,10.1522,8.644,15.672
	c0.0385,0.0876,0.0641,0.1816,0.1025,0.2702c2.3947,5.5797,4.2863,11.4275,5.5861,17.4995c0.0117,0.0545,0.015,0.1111,0.0267,0.1656
	C354.208,100.9931,354.9311,107.329,354.9952,113.8272z"/>
</svg>
