<?xml version="1.0" encoding="utf-8"?>
<!-- Generator: Adobe Illustrator 23.0.6, SVG Export Plug-In . SVG Version: 6.00 Build 0)  -->
<svg version="1.0" id="Capa_1" xmlns="http://www.w3.org/2000/svg" xmlns:xlink="http://www.w3.org/1999/xlink" x="0px" y="0px"
	 viewBox="0 0 360 360" style="enable-background:new 0 0 360 360;" xml:space="preserve">
<path id="Icon_Favorite_Filled" transform="translate(0 3)" d="M259.7208,42.6889c37.6928,0.0075,68.6577,30.6864,69.0262,68.404
	l-0.0011,1.5989c0,54.3627-55.8246,105.093-140.3252,181.8834l-0.643,0.5837l-7.7116,6.9666l-8.0309-7.3111
	C87.2601,217.9403,31.2539,167.1544,31.2529,112.435c-0.1805-18.4485,6.8336-35.8631,19.7511-49.0356
	c12.9185-13.1727,30.1927-20.5265,48.6407-20.707c0.0032,0,1.4024,0.0005,1.4056,0.0005
	c22.7193,0.1746,44.2327,10.1663,59.0246,27.4135c4.9869,5.8144,12.2648,9.1607,19.9252,9.1607s14.9383-3.3463,19.9252-9.1607
	c14.7919-17.2472,36.3053-27.2389,59.0855-27.414L259.7208,42.6889 M100.3196,16.4397c-0.3108,0-0.6216,0.0016-0.9314,0.0048
	C46.7465,16.9593,4.4898,60.0502,5.0047,112.6919c0,66.1487,59.4977,120.0465,149.6207,201.7701l25.3745,23.0984l25.3745-22.9233
	c90.1219-81.8987,149.6208-135.7965,149.6208-201.9452c0.0064-0.6216,0.0064-1.2433,0-1.8649
	c-0.5116-52.3247-43.0834-94.3916-95.2957-94.3873c-0.314,0.0003-0.6366,0.0016-0.9517,0.0048
	c-30.3027,0.2328-59.0203,13.5711-78.7479,36.5734c-19.7276-23.0023-48.4452-36.3406-78.7479-36.5734
	C100.9412,16.4413,100.6304,16.4397,100.3196,16.4397L100.3196,16.4397z"/>
</svg>
