<?xml version="1.0" encoding="utf-8"?>
<!-- Generator: Adobe Illustrator 23.0.6, SVG Export Plug-In . SVG Version: 6.00 Build 0)  -->
<svg version="1.0" id="Capa_1" xmlns="http://www.w3.org/2000/svg" xmlns:xlink="http://www.w3.org/1999/xlink" x="0px" y="0px"
	 viewBox="0 0 360 360" style="enable-background:new 0 0 360 360;" xml:space="preserve">
<path d="M266.7846,89.0507c0.468-0.3427,0.8975-0.7524,1.2592-1.244l13.4405-18.2892l7.632,5.5301
	c1.0344,0.7492,2.2324,1.1105,3.4227,1.1105c1.8064,0,3.59-0.8367,4.7347-2.4149c1.8939-2.6127,1.3082-6.2635-1.3044-8.1575
	L283.731,56.718c-0.0197-0.0149-0.0369-0.0318-0.0568-0.0464c-0.0255-0.0187-0.0526-0.0333-0.0782-0.0515l-12.2892-8.9047
	c-2.6127-1.8939-6.2559-1.3159-8.1575,1.3044c-1.8939,2.6127-1.3082,6.2635,1.3044,8.1575l7.5671,5.4831l-13.3932,18.2249
	c-0.4568,0.6225-0.7684,1.3061-0.9485,2.0109c-21.0037-13.0834-45.543-21.0165-71.8593-22.0406
	c0.0106-0.1439,0.0219-0.2877,0.0219-0.4343v-1.0298c12.386-2.6793,21.6677-13.6941,21.6677-26.882
	C207.5093,17.3164,195.1933,5,180,5c-15.193,0-27.5093,12.3164-27.5093,27.5095c0,13.188,9.282,24.2028,21.6681,26.882v1.0298
	c0,0.1466,0.0113,0.2904,0.0219,0.4343C95.6194,63.9128,32.8655,128.5551,32.8655,207.8654C32.8655,289.1255,98.7398,355,180,355
	s147.1345-65.8745,147.1345-147.1346C327.1345,159.0627,303.368,115.8177,266.7846,89.0507z M164.1735,32.5095
	c0-8.7269,7.0998-15.8266,15.8265-15.8266c8.7267,0,15.8265,7.0997,15.8265,15.8266c0,6.6625-4.1438,12.3651-9.9848,14.6957V36.4965
	c0-3.2249-2.6165-5.8414-5.8414-5.8414c-3.2249,0-5.8414,2.6165-5.8414,5.8414v10.7088
	C168.3175,44.8749,164.1735,39.1721,164.1735,32.5095z M180,343.3171c-74.6883,0-135.4516-60.7634-135.4516-135.4518
	S105.3117,72.4136,180,72.4136c74.6881,0,135.4517,60.7634,135.4517,135.4518S254.6881,343.3171,180,343.3171z M247.4428,114.2377
	c2.0232-2.5252,5.6969-2.9283,8.2107-0.9089c5.0314,4.0312,9.7852,8.5073,14.1358,13.3105
	c2.6659,2.9473,5.2177,6.0582,7.5832,9.2565c1.9205,2.5898,1.3767,6.2483-1.2169,8.1688c-1.0421,0.7758-2.2628,1.1485-3.4722,1.1485
	c-1.7874,0-3.552-0.8176-4.6967-2.3654c-2.1449-2.8903-4.4495-5.7084-6.8568-8.3705c-3.9323-4.3392-8.2335-8.3894-12.7781-12.0289
	C245.8342,120.429,245.4273,116.7553,247.4428,114.2377z M301.0768,207.8641c0,66.7618-54.3146,121.0765-121.0765,121.0765
	S58.9237,274.6259,58.9237,207.8641S113.2384,86.7875,180.0002,86.7875c14.8736,0,29.4049,2.6697,43.1908,7.9331
	c3.4037,1.3006,6.7275,2.7458,9.9753,4.3392c2.8979,1.4185,4.0958,4.9173,2.6735,7.8152c-1.4185,2.8941-4.9173,4.0958-7.8152,2.6735
	c-2.9283-1.4337-5.9327-2.742-9.0018-3.9133c-12.4473-4.7537-25.579-7.1649-39.0227-7.1649
	c-60.3196,0-109.3936,49.0741-109.3936,109.3937c0,60.3195,49.074,109.3936,109.3936,109.3936s109.3937-49.0741,109.3937-109.3936
	c0-15.0371-2.9968-29.6065-8.9029-43.2973c-1.2778-2.9626,0.0875-6.4005,3.0463-7.6783c2.9587-1.2892,6.4005,0.0875,7.6783,3.0462
	C297.7605,175.1011,301.0768,191.2259,301.0768,207.8641z M271.224,182.5156c-3.3904-12.22-9.1367-23.4351-16.7675-33.1357
	c-10.2263-13.0001-23.7503-23.2426-39.3488-29.4752c-2.0213-0.83-4.0792-1.5878-6.1776-2.2609
	c-9.1239-2.924-18.8349-4.5355-28.93-4.5355c-2.0812,0-4.1177,0.1792-6.1656,0.3118v36.2161v12.1017v16.6092v12.1016v8.1888
	l4.9548,4.9553l7.9041,7.9041l6.5112,6.5112l8.466,8.4659l6.5136,6.5136l8.466,8.466l6.5136,6.5136l8.4659,8.466l16.8307,16.8307
	c16.2551-17.0114,26.2964-40.012,26.2964-65.399c0-7.6945-1.0178-15.135-2.7487-22.298
	C271.7569,184.5454,271.5083,183.5233,271.224,182.5156z M185.5174,124.9727c4.4624,0.2938,8.7993,1.0235,13.0434,1.9975
	l-13.0434,11.9567V124.9727z M185.5174,155.1529l26.1676-23.9871c3.0643,1.2712,6.0382,2.7064,8.9057,4.3212l-35.0733,32.1507
	V155.1529z M186.8476,195.1287l-1.3301-1.3301v-10.0214l45.2834-41.5094c2.4606,1.9095,4.7961,3.9608,7.0261,6.1295
	L186.8476,195.1287z M201.8247,210.1064l-6.5112-6.5112l50.5173-46.3083c1.8901,2.4539,3.6038,5.0413,5.2149,7.7006
	L201.8247,210.1064z M216.8044,225.086l-6.5136-6.5136l46.4067-42.5391c1.2802,3.0733,2.3583,6.2436,3.2668,9.489L216.8044,225.086z
	 M247.6691,255.9507l-7.4192-7.4192l19.6017-17.9683C257.2694,239.6197,253.2016,248.2073,247.6691,255.9507z M262.9325,211.5126
	l-31.1486,28.553l-6.5136-6.5136l37.3484-34.2357c0.2891,2.8128,0.4554,5.6608,0.4554,8.5487
	C263.0742,209.0876,262.9857,210.2975,262.9325,211.5126z"/>
</svg>
