<?xml version="1.0" encoding="utf-8"?>
<!-- Generator: Adobe Illustrator 23.0.6, SVG Export Plug-In . SVG Version: 6.00 Build 0)  -->
<svg version="1.0" id="Capa_1" xmlns="http://www.w3.org/2000/svg" xmlns:xlink="http://www.w3.org/1999/xlink" x="0px" y="0px"
	 viewBox="0 0 360 360" style="enable-background:new 0 0 360 360;" xml:space="preserve">
<path d="M182.3543,63.8565c-63.1757,0-114.574,51.3983-114.574,114.574s51.3983,114.574,114.574,114.574
	s114.574-51.3983,114.574-114.574S245.53,63.8565,182.3543,63.8565z M182.3543,283.5874
	c-57.9829,0-105.157-47.1741-105.157-105.1569s47.1741-105.157,105.157-105.157s105.1569,47.1741,105.1569,105.157
	S240.3371,283.5874,182.3543,283.5874z M265.5381,178.4305c0,45.8682-37.3156,83.1839-83.1839,83.1839
	c-16.2377,0-31.9726-4.6809-45.5004-13.537c-2.1765-1.4224-2.7865-4.3407-1.3611-6.5171c1.4285-2.1795,4.3529-2.7804,6.5171-1.3611
	c11.992,7.8475,25.9428,11.9981,40.3443,11.9981c40.6754,0,73.7668-33.0915,73.7668-73.7668s-33.0914-73.7668-73.7668-73.7668
	s-73.7668,33.0915-73.7668,73.7668c0,16.5687,5.3645,32.2209,15.5111,45.2582c1.5971,2.0508,1.2292,5.0089-0.8246,6.606
	c-2.0538,1.591-5.0089,1.2292-6.606-0.8246c-11.4464-14.7049-17.4976-32.3558-17.4976-51.0396
	c0-45.8682,37.3156-83.1839,83.1839-83.1839S265.5381,132.5623,265.5381,178.4305z M53.6547,63.8565
	c-2.5995,0-4.7085,2.109-4.7085,4.7085v34.3793l-14.1256,0.1211V68.565c0-2.5995-2.109-4.7085-4.7085-4.7085
	c-2.5995,0-4.7085,2.109-4.7085,4.7085v34.5813l-10.9865,0.0943V68.565c0-2.5995-2.109-4.7085-4.7085-4.7085S5,65.9655,5,68.565
	v37.6682c0,0.3104,0.1196,0.5817,0.177,0.8756C5.1188,107.4042,5,107.6774,5,107.9897v10.7996
	c0,7.9303,3.5007,15.3364,9.5029,20.3791c-0.0582,0.5395-0.0858,1.0698-0.0858,1.594v138.1166
	c0,9.5182,7.7433,17.2646,17.2646,17.2646s17.2646-7.7464,17.2646-17.2646V140.7623c0-0.5242-0.0276-1.0545-0.0858-1.594
	c6.0021-5.0427,9.5029-12.4488,9.5029-20.3791v-11.1766c0-0.2403-0.1027-0.4579-0.1387-0.6924
	c0.0356-0.2337,0.1387-0.4433,0.1387-0.687V68.565C58.3632,65.9655,56.2542,63.8565,53.6547,63.8565z M48.9462,118.7892
	c0,5.8335-2.9398,11.2348-7.8629,14.4444c-1.7504,1.1434-2.5382,3.2984-1.9374,5.3002c0.2606,0.8706,0.3832,1.5787,0.3832,2.2286
	v138.1166c0,4.3284-3.5191,7.8475-7.8475,7.8475s-7.8475-3.5191-7.8475-7.8475V140.7623c0-0.6499,0.1226-1.358,0.3832-2.2286
	c0.6008-2.0017-0.187-4.1567-1.9374-5.3002c-4.9231-3.2095-7.8629-8.6108-7.8629-14.4444v-6.1309l34.5291-0.2973V118.7892z
	 M333.0269,63.8565c-12.1147,0-21.9731,9.8585-21.9731,21.9731v81.6143c0,12.1146,9.8585,21.9731,21.9731,21.9731
	c4.6732,0,8.9905-1.4917,12.556-3.9893v84.0341v9.4171c0,4.3284-3.5191,7.8475-7.8475,7.8475c-4.3284,0-7.8475-3.5191-7.8475-7.8475
	v-65.5423c0-2.5995-2.109-4.7085-4.7085-4.7085c-2.5995,0-4.7085,2.109-4.7085,4.7085v65.5423
	c0,9.5212,7.7433,17.2646,17.2646,17.2646c9.5213,0,17.2646-7.7433,17.2646-17.2646v-9.4171V167.4439v-10.9865v-50.2242V85.8296
	C355,73.715,345.1415,63.8565,333.0269,63.8565z M345.5829,106.2332v50.2242v10.9865c0,6.9248-5.6312,12.5561-12.556,12.5561
	s-12.5561-5.6312-12.5561-12.5561V85.8296c0-6.9248,5.6312-12.5561,12.5561-12.5561s12.556,5.6312,12.556,12.5561V106.2332z"/>
</svg>
