<?xml version="1.0" encoding="utf-8"?>
<!-- Generator: Adobe Illustrator 23.0.6, SVG Export Plug-In . SVG Version: 6.00 Build 0)  -->
<svg version="1.0" id="Capa_1" xmlns="http://www.w3.org/2000/svg" xmlns:xlink="http://www.w3.org/1999/xlink" x="0px" y="0px"
	 viewBox="0 0 360 360" style="enable-background:new 0 0 360 360;" xml:space="preserve">
<path d="M346.7307,306.8176c11.0257,11.0258,11.0257,28.8874,0,39.9131C341.2178,352.2435,333.996,355,326.7742,355
	c-7.2218,0-14.4437-2.7565-19.9565-8.2693L180,219.913L53.1823,346.7307C47.6695,352.2435,40.4476,355,33.2258,355
	c-7.2218,0-14.4437-2.7565-19.9565-8.2693c-11.0257-11.0257-11.0257-28.8873,0-39.9131L140.0869,180L13.2693,53.1823
	c-11.0257-11.0257-11.0257-28.8873,0-39.913s28.8873-11.0257,39.913,0L180,140.0869L306.8176,13.2693
	c11.0258-11.0257,28.8874-11.0257,39.9131,0s11.0257,28.8873,0,39.913L219.913,180L346.7307,306.8176z"/>
</svg>
