<?xml version="1.0" encoding="utf-8"?>
<!-- Generator: Adobe Illustrator 23.0.6, SVG Export Plug-In . SVG Version: 6.00 Build 0)  -->
<svg version="1.0" id="Capa_1" xmlns="http://www.w3.org/2000/svg" xmlns:xlink="http://www.w3.org/1999/xlink" x="0px" y="0px"
	 viewBox="0 0 360 360" style="enable-background:new 0 0 360 360;" xml:space="preserve">
<path d="M180,79.4404l27.9345,56.6013c4.2469,8.6044,12.4547,14.5687,21.9509,15.9483l62.4636,9.0765l-45.1984,44.0581
	c-6.8721,6.6977-10.0075,16.3478-8.3846,25.8054l10.6706,62.2106l-55.8702-29.372c-4.2469-2.2326-8.9066-3.3489-13.5663-3.3489
	s-9.3194,1.1163-13.5663,3.3489l-55.869,29.372l10.6694-62.2112c1.6228-9.4573-1.5125-19.1074-8.3846-25.8049L67.651,161.0665
	l62.4636-9.0765c9.4962-1.3796,17.704-7.344,21.9509-15.9483L180,79.4404 M180,13.5651l-54.0778,109.574L5,140.71l87.5,85.2914
	L71.8445,346.4349L180,289.5739l108.1567,56.8611L267.5,226.0014L355,140.71l-120.9222-17.5709L180,13.5651L180,13.5651z"/>
</svg>
