<?xml version="1.0" encoding="utf-8"?>
<!-- Generator: Adobe Illustrator 23.0.6, SVG Export Plug-In . SVG Version: 6.00 Build 0)  -->
<svg version="1.0" id="Capa_1" xmlns="http://www.w3.org/2000/svg" xmlns:xlink="http://www.w3.org/1999/xlink" x="0px" y="0px"
	 viewBox="0 0 360 360" style="enable-background:new 0 0 360 360;" xml:space="preserve">
<path d="M5,180c0-15.5903,12.6354-28.2258,28.2258-28.2258h225.4095l-53.4306-53.4306c-11.0257-11.0257-11.0257-28.8873,0-39.913
	c5.5128-5.5129,12.7347-8.2693,19.9565-8.2693c7.2218,0,14.4437,2.7564,19.9565,8.2693l101.4977,101.4977
	c0.7166,0.7084,1.3953,1.4545,2.0331,2.2358c0.0474,0.058,0.0915,0.1179,0.1384,0.1762c0.2395,0.2981,0.4752,0.5992,0.7026,0.907
	c0.0895,0.1211,0.1735,0.2448,0.2609,0.3669c0.178,0.2493,0.3555,0.4988,0.5256,0.7539c0.1034,0.155,0.2009,0.3128,0.3009,0.4694
	c0.1463,0.2292,0.2927,0.4582,0.4326,0.6919c0.1019,0.1702,0.1979,0.3428,0.2958,0.5146c0.1302,0.2284,0.2604,0.4567,0.3843,0.689
	c0.091,0.1707,0.1767,0.3433,0.264,0.5154c0.1221,0.2406,0.2436,0.4813,0.3589,0.7258c0.0769,0.1633,0.149,0.328,0.2226,0.4924
	c0.1161,0.259,0.2312,0.5185,0.3397,0.7816c0.0616,0.1495,0.1188,0.3003,0.1777,0.4507c0.1106,0.2819,0.2194,0.5645,0.3211,0.8507
	c0.0476,0.1342,0.0912,0.2694,0.1367,0.4042c0.1024,0.3027,0.2025,0.6061,0.2947,0.9132c0.037,0.1235,0.0702,0.2477,0.1055,0.3716
	c0.0907,0.3177,0.1791,0.6363,0.2588,0.9585c0.0298,0.1204,0.0554,0.2416,0.0836,0.3623c0.0754,0.3232,0.1489,0.6469,0.2132,0.9743
	c0.0259,0.1321,0.0468,0.265,0.0709,0.3974c0.057,0.3143,0.1134,0.6288,0.1599,0.9466c0.024,0.1636,0.0413,0.3279,0.0625,0.4919
	c0.0369,0.2874,0.0754,0.5741,0.1036,0.8641c0.0226,0.2308,0.0358,0.4623,0.0527,0.6935c0.0164,0.2256,0.0375,0.4499,0.0486,0.6769
	c0.0229,0.4646,0.0353,0.9296,0.0353,1.3947c0,0.0004,0,0.0007,0,0.001l0,0c0.0001,0.4655-0.0123,0.9308-0.0353,1.3958
	c-0.011,0.2269-0.0322,0.4509-0.0485,0.6763c-0.017,0.2315-0.0302,0.4631-0.0528,0.6942c-0.0282,0.2898-0.0667,0.5764-0.1036,0.8635
	c-0.0212,0.1642-0.0385,0.3287-0.0626,0.4927c-0.0464,0.3174-0.1028,0.6314-0.1597,0.9453
	c-0.0242,0.1329-0.0451,0.2661-0.0712,0.3987c-0.0641,0.3269-0.1376,0.6502-0.2129,0.9729c-0.0283,0.1212-0.054,0.2429-0.084,0.3638
	c-0.0796,0.3217-0.1678,0.6397-0.2583,0.9569c-0.0355,0.1244-0.0688,0.2493-0.106,0.3733c-0.0922,0.3068-0.1922,0.6098-0.2944,0.912
	c-0.0456,0.135-0.0893,0.2705-0.137,0.405c-0.1017,0.2862-0.2105,0.5687-0.3211,0.8506c-0.0589,0.1504-0.1161,0.3011-0.1777,0.4507
	c-0.1084,0.2629-0.2233,0.5221-0.3394,0.7809c-0.0737,0.1648-0.146,0.33-0.2231,0.4937c-0.115,0.2437-0.2362,0.4836-0.3578,0.7235
	c-0.0877,0.173-0.1737,0.3464-0.2652,0.5179c-0.1236,0.2317-0.2535,0.4593-0.3833,0.6871
	c-0.0981,0.1723-0.1945,0.3453-0.2966,0.5159c-0.1398,0.2336-0.2862,0.4625-0.4325,0.6918c-0.1,0.1566-0.1975,0.3143-0.3009,0.4694
	c-0.1697,0.2546-0.3467,0.5035-0.5244,0.7522c-0.0879,0.1229-0.1725,0.2474-0.2626,0.3693
	c-0.227,0.3073-0.4623,0.6077-0.7012,0.9053c-0.0472,0.0588-0.0917,0.119-0.1394,0.1774c-0.6378,0.7813-1.3165,1.5273-2.0331,2.2357
	L245.1178,301.5694c-11.0257,11.0257-28.8873,11.0257-39.913,0c-11.0257-11.0257-11.0257-28.8874,0-39.9131l53.4305-53.4306H33.2258
	C17.6354,208.2258,5,195.5903,5,180z"/>
</svg>
