<?xml version="1.0" encoding="utf-8"?>
<!-- Generator: Adobe Illustrator 23.0.6, SVG Export Plug-In . SVG Version: 6.00 Build 0)  -->
<svg version="1.0" id="Capa_1" xmlns="http://www.w3.org/2000/svg" xmlns:xlink="http://www.w3.org/1999/xlink" x="0px" y="0px"
	 viewBox="0 0 360 360" style="enable-background:new 0 0 360 360;" xml:space="preserve">
<path d="M180,355c-15.5903,0-28.2258-12.6354-28.2258-28.2258V101.3646l-53.4306,53.4306c-11.0257,11.0257-28.8873,11.0257-39.913,0
	c-5.5129-5.5128-8.2693-12.7347-8.2693-19.9565c0-7.2218,2.7564-14.4437,8.2693-19.9565L159.9283,13.3844
	c0.7084-0.7166,1.4545-1.3953,2.2358-2.0331c0.058-0.0474,0.1179-0.0915,0.1762-0.1384c0.2981-0.2395,0.5992-0.4752,0.907-0.7026
	c0.1211-0.0895,0.2448-0.1735,0.3669-0.2609c0.2493-0.178,0.4988-0.3555,0.7539-0.5256c0.155-0.1034,0.3128-0.2009,0.4694-0.3009
	c0.2292-0.1463,0.4582-0.2927,0.6919-0.4326c0.1702-0.1019,0.3428-0.1979,0.5146-0.2958c0.2284-0.1302,0.4567-0.2604,0.689-0.3843
	c0.1707-0.091,0.3433-0.1767,0.5154-0.264c0.2406-0.1221,0.4813-0.2436,0.7258-0.3589c0.1633-0.0769,0.328-0.149,0.4924-0.2226
	c0.259-0.1161,0.5185-0.2312,0.7816-0.3397c0.1495-0.0616,0.3003-0.1188,0.4507-0.1777c0.2819-0.1106,0.5645-0.2194,0.8507-0.3211
	c0.1342-0.0476,0.2694-0.0912,0.4042-0.1367c0.3027-0.1024,0.6061-0.2025,0.9132-0.2947c0.1235-0.037,0.2477-0.0702,0.3716-0.1055
	c0.3177-0.0907,0.6363-0.1791,0.9585-0.2588c0.1204-0.0298,0.2416-0.0554,0.3623-0.0836c0.3232-0.0754,0.6469-0.1489,0.9743-0.2132
	c0.1321-0.0259,0.265-0.0468,0.3974-0.0709c0.3143-0.057,0.6288-0.1134,0.9466-0.1599c0.1636-0.024,0.3279-0.0413,0.4919-0.0625
	c0.2874-0.0369,0.5741-0.0754,0.8641-0.1036c0.2308-0.0226,0.4623-0.0358,0.6935-0.0527c0.2256-0.0164,0.4499-0.0375,0.6769-0.0486
	C179.0689,5.0124,179.5338,5,179.9989,5c0.0004,0,0.0007,0,0.001,0l0,0c0.4655-0.0001,0.9308,0.0123,1.3958,0.0353
	c0.2269,0.011,0.4509,0.0322,0.6763,0.0485c0.2315,0.017,0.4631,0.0302,0.6942,0.0528c0.2898,0.0282,0.5764,0.0667,0.8635,0.1036
	c0.1642,0.0212,0.3287,0.0385,0.4927,0.0626c0.3174,0.0464,0.6314,0.1028,0.9453,0.1597c0.1329,0.0242,0.2661,0.0451,0.3987,0.0712
	c0.3269,0.0641,0.6502,0.1376,0.9729,0.2129c0.1212,0.0283,0.2429,0.054,0.3638,0.084c0.3217,0.0796,0.6397,0.1678,0.9569,0.2583
	c0.1244,0.0355,0.2493,0.0688,0.3733,0.106c0.3068,0.0922,0.6098,0.1922,0.912,0.2944c0.135,0.0456,0.2705,0.0893,0.405,0.137
	c0.2862,0.1017,0.5687,0.2105,0.8506,0.3211c0.1504,0.0589,0.3011,0.1161,0.4507,0.1777c0.2629,0.1084,0.5221,0.2233,0.7809,0.3394
	c0.1648,0.0737,0.33,0.146,0.4937,0.2231c0.2437,0.115,0.4836,0.2362,0.7235,0.3578c0.173,0.0877,0.3464,0.1737,0.5179,0.2652
	c0.2317,0.1236,0.4593,0.2535,0.6871,0.3833c0.1723,0.0981,0.3453,0.1945,0.5159,0.2966c0.2336,0.1398,0.4625,0.2862,0.6918,0.4325
	c0.1566,0.1,0.3143,0.1975,0.4694,0.3009c0.2546,0.1697,0.5035,0.3467,0.7522,0.5244c0.1229,0.0879,0.2474,0.1725,0.3693,0.2626
	c0.3073,0.227,0.6077,0.4623,0.9053,0.7012c0.0588,0.0472,0.119,0.0917,0.1774,0.1394c0.7813,0.6378,1.5273,1.3165,2.2357,2.0331
	l101.4977,101.4977c11.0257,11.0257,11.0257,28.8873,0,39.913s-28.8874,11.0257-39.9131,0l-53.4305-53.4305v225.4095
	C208.2258,342.3645,195.5904,355,180,355z"/>
</svg>
