<?xml version="1.0" encoding="utf-8"?>
<!-- Generator: Adobe Illustrator 23.0.6, SVG Export Plug-In . SVG Version: 6.00 Build 0)  -->
<svg version="1.0" id="Capa_1" xmlns="http://www.w3.org/2000/svg" xmlns:xlink="http://www.w3.org/1999/xlink" x="0px" y="0px"
	 viewBox="0 0 360 360" style="enable-background:new 0 0 360 360;" xml:space="preserve">
<path d="M14.9273,109.6164c0-39.2762,31.9542-71.2305,71.2228-71.2305c6.441,0,11.6667,5.2257,11.6667,11.6667
	s-5.2257,11.6667-11.6667,11.6667c-26.4095,0-47.8895,21.4876-47.8895,47.8971c0,26.4095,21.48,47.8896,47.8895,47.8896
	c4.0256,0,8.0361-0.5013,11.9097-1.4888c6.2663-1.6178,12.5933,2.1724,14.1884,8.4158c1.595,6.2435-2.1724,12.6009-8.4158,14.1884
	c-5.765,1.4735-11.7122,2.2179-17.6823,2.2179C46.8815,180.8393,14.9273,148.8851,14.9273,109.6164z M273.8499,61.7193
	c26.4095,0,47.8895,21.4876,47.8895,47.8971c0,26.4095-21.48,47.8896-47.8895,47.8896c-2.9319,0-5.803-0.2659-8.5905-0.7672
	c-6.2663-1.0406-12.3958,3.0762-13.5504,9.4184c-1.1393,6.3346,3.0762,12.4034,9.4184,13.5504
	c4.1699,0.752,8.4538,1.1317,12.7225,1.1317c39.2686,0,71.2228-31.9542,71.2228-71.2229c0-39.2762-31.9542-71.2305-71.2228-71.2305
	c-6.441,0-11.6667,5.2257-11.6667,11.6667S267.4089,61.7193,273.8499,61.7193z M287.1495,190.6603h-26.5994
	c-6.441,0-11.6666,5.2256-11.6666,11.6666s5.2256,11.6667,11.6666,11.6667h26.5994c23.0826,0,42.1246,23.865,44.3121,54.2925
	l-56.7763,40.6233v-21.7181c0-53.2292-35.0228-96.531-78.0664-96.531h-31.4377c-43.0436,0-78.0664,43.3018-78.0664,96.531v22.0078
	l-58.5688-40.989c2.2103-30.3895,21.2369-54.2166,44.3044-54.2166h26.5994c6.441,0,11.6666-5.2257,11.6666-11.6667
	s-5.2256-11.6666-11.6666-11.6666H72.8505C35.4351,190.6603,5,228.106,5,274.1346c0,3.8054,1.8609,7.3752,4.975,9.5551
	l82.1148,57.4675c2.0356,1.4279,4.375,2.1115,6.684,2.1115c3.6762,0,7.2993-1.7318,9.5627-4.975
	c1.8701-2.6689,2.4624-5.8476,1.9129-8.8162c0.1241-0.6818,0.1986-1.3809,0.1986-2.0984v-40.1877
	c0-40.3624,24.5562-73.1977,54.7331-73.1977h31.4377c30.1769,0,54.7331,32.8353,54.7331,73.1977v40.1877
	c0,0.7207,0.0748,1.423,0.2,2.1077c-0.5536,3.006,0.0597,6.2236,1.9799,8.9058c2.2786,3.1825,5.8561,4.8763,9.4943,4.8763
	c2.3546,0,4.7244-0.7064,6.7828-2.1799l80.3147-57.4675c3.061-2.1875,4.8763-5.7194,4.8763-9.4868
	C355,228.106,324.5649,190.6603,287.1495,190.6603z M98.8499,98.7853c0-45.2463,36.8077-82.0541,82.054-82.0541
	c45.2463,0,82.054,36.8077,82.054,82.0541c0,45.2463-36.8077,82.054-82.054,82.054
	C135.6575,180.8393,98.8499,144.0316,98.8499,98.7853z M122.1832,98.7853c0,32.3795,26.3411,58.7207,58.7207,58.7207
	s58.7207-26.3412,58.7207-58.7207c0-32.3796-26.3411-58.7207-58.7207-58.7207S122.1832,66.4057,122.1832,98.7853z"/>
</svg>
