<?xml version="1.0" encoding="utf-8"?>
<!-- Generator: Adobe Illustrator 23.0.6, SVG Export Plug-In . SVG Version: 6.00 Build 0)  -->
<svg version="1.0" id="Capa_1" xmlns="http://www.w3.org/2000/svg" xmlns:xlink="http://www.w3.org/1999/xlink" x="0px" y="0px"
	 viewBox="0 0 360 360" style="enable-background:new 0 0 360 360;" xml:space="preserve">
<path d="M306.4331,342.8869l-57.6634-57.6634l-0.2604,0.2604v-0.5208l-0.5766-0.5767c-5.3583-5.347-8.3298-12.6315-8.2403-20.2008
	c-61.766,50.0903-152.4435,40.6253-202.5338-21.1407S-3.4668,90.6015,58.2992,40.5112S210.7427-0.1142,260.833,61.6518
	c40.9307,50.4713,42.9843,122.1033,5.0125,174.8368c8.1627-0.609,16.1849,2.373,21.9679,8.1659l58.4261,58.4447
	c11.2692,10.7049,11.7267,28.5185,1.0218,39.7877c-10.705,11.2692-28.5185,11.7267-39.7878,1.0218
	c-0.3493-0.3318-0.69-0.6725-1.0218-1.0218H306.4331z M49.6264,152.9511c0,54.92,44.5215,99.4415,99.4415,99.4415
	s99.4415-44.5214,99.4415-99.4415c0-54.9128-44.5101-99.4312-99.4229-99.4415c-54.9097-0.0205-99.4395,44.4759-99.4601,99.3856
	C49.6264,152.9139,49.6264,152.9325,49.6264,152.9511z"/>
</svg>
