<?xml version="1.0" encoding="utf-8"?>
<!-- Generator: Adobe Illustrator 23.0.6, SVG Export Plug-In . SVG Version: 6.00 Build 0)  -->
<svg version="1.0" id="Capa_1" xmlns="http://www.w3.org/2000/svg" xmlns:xlink="http://www.w3.org/1999/xlink" x="0px" y="0px"
	 viewBox="0 0 360 360" style="enable-background:new 0 0 360 360;" xml:space="preserve">
<style type="text/css">
	.st0{fill:#37E2A4;}
</style>
<path class="st0" d="M192.1661,174.8786c-0.0813-1.536,0.4407-3.0078,1.4675-4.1502c1.0311-1.1424,2.4388-1.8141,3.9748-1.8954
	c1.4077-0.1883,2.9394-0.2909,4.4497-0.2909l2.0452-0.0257c3.1447,0.0086,5.7162,2.58,5.7247,5.729
	c0.0043,1.536-0.5862,2.9779-1.6686,4.0689c-1.0782,1.091-2.5201,1.6943-4.0561,1.6986h-2.028c-0.03,0-0.0599,0-0.0856,0
	c-1.0012,0-1.9895,0.0685-2.9779,0.2011c-0.2011,0.0428-0.4963,0.0856-0.7958,0.1027c-0.1027,0.0043-0.2054,0.0085-0.3038,0.0085
	C194.8787,180.3252,192.333,177.942,192.1661,174.8786z M189.4321,301.5842h-5.8616c-1.536,0.0043-2.9779,0.6076-4.0561,1.6986
	c-1.0825,1.091-1.6729,2.5329-1.6687,4.0689c0.0086,3.149,2.58,5.7205,5.729,5.729h5.8574c1.536-0.0043,2.9779-0.6075,4.0604-1.6986
	c1.0825-1.0868,1.6729-2.5329,1.6686-4.0689C195.1526,304.1642,192.5811,301.5927,189.4321,301.5842z M209.3446,237.4569
	c0.0085,0,0.0128,0,0.0214,0c1.5275,0,2.965-0.5904,4.0475-1.6686c1.091-1.0782,1.6943-2.5201,1.6986-4.0561
	c0.0128-3.1704-2.5586-5.759-5.7333-5.7675h-5.8788c-0.0086,0-0.0128,0-0.0214,0c-3.1576,0-5.7376,2.5629-5.7461,5.7205
	c-0.0086,1.536,0.5819,2.9822,1.6601,4.0732c1.0825,1.091,2.5286,1.6943,4.1031,1.6986H209.3446z M178.6715,192.087
	c0.2738,0,0.5519-0.0214,0.83-0.0599c1.5232-0.2182,2.8667-1.0183,3.9021-2.4088c0.9028-1.2622,1.9467-2.4431,3.102-3.5084
	c2.319-2.1478,2.4645-5.7846,0.3252-8.1079c-1.044-1.1295-2.4602-1.7884-4.0005-1.8483c-1.429-0.0685-2.9993,0.4706-4.1203,1.5146
	c-1.7114,1.5745-3.2731,3.3416-4.6337,5.2284c-0.9199,1.2322-1.305,2.7468-1.0825,4.27c0.2182,1.5189,1.0183,2.8581,2.2462,3.7737
	C176.2413,191.6933,177.4393,192.087,178.6715,192.087z M212.8573,301.4344h-5.8616c-1.536,0.0043-2.9779,0.6076-4.0604,1.6986
	c-1.0825,1.0867-1.6729,2.5329-1.6686,4.0689c0.0085,3.149,2.58,5.7205,5.7333,5.729h5.8574
	c1.536-0.0043,2.9779-0.6075,4.0561-1.6986c1.0825-1.091,1.6729-2.5329,1.6686-4.0689
	C218.5735,304.0144,216.002,301.443,212.8573,301.4344z M166.0112,301.6526h-5.8616c-1.536,0.0043-2.9779,0.6076-4.0604,1.6986
	s-1.6729,2.5372-1.6644,4.0689c0.0086,3.149,2.58,5.7205,5.729,5.729h5.8574c1.536-0.0043,2.9779-0.6075,4.0604-1.6986
	c1.0825-1.091,1.6729-2.5329,1.6686-4.0689C171.7317,304.2326,169.1602,301.6612,166.0112,301.6526z M183.7159,232.1558
	c0.9285,0.5862,1.9853,0.8899,3.0592,0.8899c0.4236,0,0.8514-0.0471,1.275-0.1455c1.4975-0.338,2.7768-1.2408,3.594-2.5372
	c1.69-2.6784,0.8899-6.2382-1.7927-7.9325l-0.6247-0.3936h-0.0086c-1.0782-0.7274-2.1008-1.5574-3.0164-2.4302
	c-2.1692-2.319-5.8188-2.4259-8.125-0.2567c-1.121,1.0525-1.7628,2.4773-1.8098,4.009c-0.0513,1.536,0.5006,2.9993,1.5659,4.1288
	c0.1284,0.1369,0.261,0.261,0.3637,0.3551C179.8952,229.4688,181.7521,230.9193,183.7159,232.1558z M179.57,208.9873h0.261
	l-0.2995-1.5617c-0.2824-1.4547-0.4236-2.9436-0.4236-4.6508c0.0214-1.536-0.5605-2.9865-1.6344-4.086
	c-1.0739-1.0953-2.5115-1.7114-4.1417-1.7285c-3.1319,0-5.7076,2.5458-5.7461,5.6948v0.3508c0,2.212,0.2139,4.4412,0.6418,6.6532
	c0.5862,2.6827,2.9736,4.5267,5.622,4.5267c0.4022,0,0.8087-0.0428,1.2151-0.1326
	C177.5676,213.5098,179.339,211.4218,179.57,208.9873z M232.7655,237.4569c0.0086,0,0.0128,0,0.0214,0
	c1.5275,0,2.965-0.5904,4.0475-1.6686c1.091-1.0782,1.6943-2.5201,1.6986-4.0561c0.0043-1.536-0.5862-2.9822-1.6686-4.0732
	c-1.0825-1.0868-2.5244-1.69-4.0647-1.6943h-5.8788c-0.0086,0-0.0128,0-0.0214,0c-1.5275,0-2.9651,0.5905-4.0475,1.6686
	c-1.091,1.0782-1.6943,2.5201-1.6986,4.0561c-0.0128,3.1704,2.5586,5.759,5.7632,5.7675H232.7655z M301.0857,245.4664
	c0.2653,0,0.5391-0.0171,0.8087-0.0556c1.5232-0.2139,2.8666-1.0055,3.7951-2.2334c1.2408-1.6558,1.4633-3.7609,0.7573-5.5621
	h1.2964l-2.9821-2.3447c-1.7542-1.382-3.6368-2.6441-5.5921-3.748c-2.7426-1.5745-6.2724-0.5905-7.8383,2.1649
	c-0.7616,1.3349-0.9541,2.888-0.5434,4.3684s1.3691,2.7169,2.7126,3.4785c1.4247,0.8001,2.8067,1.7285,4.1374,2.7725
	C298.6426,245.0685,299.8449,245.4664,301.0857,245.4664z M282.3156,300.844c-1.3991,0.1926-2.8153,0.2952-4.2015,0.3038h-0.8343
	c-1.536,0.0043-2.9779,0.6075-4.0604,1.6943c-1.0825,1.091-1.6729,2.5372-1.6686,4.0732c0.0085,3.1447,2.58,5.7162,5.7333,5.7247
	h0.8771c1.9467-0.0086,3.8892-0.1455,5.7803-0.4065c3.1105-0.4578,5.2883-3.3672,4.8519-6.4863
	C288.357,302.611,285.4561,300.4076,282.3156,300.844z M307.9999,292.5521c-2.1778-2.2847-5.8231-2.3703-8.125-0.1925
	c-1.198,1.1424-2.4901,2.1949-3.8293,3.1191c-1.2708,0.86-2.135,2.1607-2.4302,3.671c-0.2909,1.5061,0.0214,3.0378,0.8771,4.3128
	c0.86,1.2708,2.1607,2.135,3.671,2.4302c0.3637,0.0685,0.7274,0.107,1.091,0.107c1.1467,0,2.2762-0.3509,3.3202-1.0568
	c1.8312-1.2707,3.5897-2.6998,5.2242-4.2529c2.2976-2.1821,2.3917-5.8274,0.2097-8.1293L307.9999,292.5521z M315.9238,270.6843
	c-3.0977-0.5947-6.1098,1.4504-6.7131,4.5524c-0.3038,1.6087-0.7402,3.2175-1.2878,4.7578
	c-1.121,2.9608,0.3851,6.2852,3.3501,7.4019c0.6589,0.2524,1.3392,0.3723,2.0066,0.3723c2.3318-0.0043,4.5439-1.4504,5.4595-3.8935
	c0.7573-2.1264,1.352-4.3128,1.7622-6.5077C321.0709,274.2698,319.0172,271.2705,315.9238,270.6843z M306.7976,255.8548
	c0.6931,1.4932,1.2793,3.0549,1.72,4.5866c0.3637,1.4932,1.2878,2.7511,2.6013,3.5469c0.9071,0.5519,1.9297,0.8343,2.9651,0.8343
	c0.4578,0,0.9242-0.0556,1.382-0.1711c1.4932-0.3637,2.7511-1.2879,3.5469-2.6014c0.5648-0.9327,0.8514-1.981,0.8343-3.0549h0.2225
	l-0.4878-1.6772c-0.6289-2.1735-1.4247-4.3-2.3666-6.3152c-1.3173-2.8838-4.7401-4.1588-7.6111-2.8452
	c-1.3991,0.6375-2.4644,1.7799-3.0035,3.2218C306.066,252.817,306.1216,254.3787,306.7976,255.8548z M256.1864,237.4569
	c0.0085,0,0.0128,0,0.0214,0c1.5274,0,2.965-0.5904,4.0475-1.6686c1.091-1.0782,1.6943-2.5201,1.6986-4.0561
	c0.0128-3.1704-2.5586-5.759-5.729-5.7675h-5.883c-0.0086,0-0.0128,0-0.0214,0c-1.5275,0-2.9651,0.5905-4.0475,1.6686
	c-1.091,1.0782-1.6943,2.5201-1.6986,4.0561c-0.0043,1.536,0.5862,2.9822,1.6686,4.0732c1.0825,1.0868,2.5244,1.69,4.0946,1.6943
	H256.1864z M236.2782,301.3317h-5.8616c-3.1704,0.0086-5.7418,2.5971-5.729,5.7675c0.0086,3.1447,2.58,5.7162,5.7333,5.7247h5.8574
	c3.1699-0.0085,5.7418-2.5971,5.729-5.7675C241.9986,303.9117,239.4272,301.3403,236.2782,301.3317z M277.9215,237.504h1.7242
	c3.1704-0.0556,5.7033-2.6784,5.6477-5.8531c-0.0514-2.7982-2.1521-5.1557-4.8733-5.575l-6.6575-0.0685c-0.0085,0-0.0128,0-0.0214,0
	c-1.5274,0-2.9651,0.5905-4.0475,1.6686c-1.091,1.0825-1.6943,2.5244-1.6986,4.0604c-0.0043,1.536,0.5862,2.9779,1.6686,4.0689
	c1.0825,1.091,2.5244,1.6943,4.0946,1.6986H277.9215z M259.6991,301.2248h-5.8616c-1.536,0.0043-2.9779,0.6076-4.0561,1.6986
	c-1.0825,1.091-1.6729,2.5329-1.6687,4.0689c0.0086,3.149,2.58,5.7205,5.729,5.729h5.8574c1.536-0.0043,2.9779-0.6075,4.0604-1.6986
	c1.0825-1.0868,1.6729-2.5329,1.6686-4.0689C265.4196,303.8047,262.8481,301.2333,259.6991,301.2248z M287.2937,49.0115
	c13.2293,0,23.9942,10.7649,23.9942,23.9942S300.5231,97,287.2937,97s-23.9942-10.7649-23.9942-23.9942
	S274.0644,49.0115,287.2937,49.0115z M287.2937,62.7971c-5.6306,0-10.213,4.5823-10.213,10.2087
	c0,5.6306,4.5824,10.213,10.213,10.213c5.6306,0,10.213-4.5824,10.213-10.213C297.5067,67.3794,292.9243,62.7971,287.2937,62.7971z
	 M287.2937,168.8372c1.9467,0,3.808-0.8258,5.1172-2.2719c0.569-0.629,14.0808-15.6254,27.0406-35.5335
	c1.0012-1.5403,1.3435-3.3844,0.967-5.1856c-0.3808-1.8013-1.4419-3.3458-2.9822-4.347c-1.5403-1.0055-3.3886-1.3691-5.1813-0.9712
	c-1.8056,0.3808-3.3544,1.4419-4.3556,2.9822c-7.6801,11.7917-15.8093,22.0475-20.6056,27.8321
	c-11.0387-13.3278-41.0015-51.9547-41.0015-78.3364c0-22.608,18.3936-41.0016,41.0015-41.0016
	c22.6037,0,40.9973,18.3936,40.9973,41.0016c0,7.8512-2.734,17.5807-8.1207,28.9189c-1.6259,3.4314-0.1583,7.5517,3.2688,9.1818
	c3.44,1.6259,7.5517,0.1626,9.1861-3.2688c6.2724-13.2037,9.4514-24.9227,9.4514-34.8318c0-30.2067-24.5761-54.7828-54.7828-54.7828
	c-30.2067,0-54.7828,24.5761-54.7828,54.7828c0,37.9638,47.6376,91.309,49.6699,93.5681
	C283.4858,168.0114,285.3513,168.8372,287.2937,168.8372z M324.5494,139.375c-3.4614-1.0953-7.1538,0.8343-8.2405,4.2957
	c-1.091,3.4614,0.8343,7.1538,4.2957,8.2405c12.7116,4.0005,21.2517,10.3969,21.2517,15.9206
	c0,8.6042-20.7596,20.6013-54.5646,20.6013s-54.5603-11.9971-54.5603-20.6013c0-4.1759,4.8647-8.9422,13.0154-12.7587
	c3.2859-1.536,4.7064-5.4509,3.1661-8.7368c-1.5446-3.2902-5.4637-4.7193-8.7368-3.1661
	c-13.2764,6.2125-20.5885,14.9707-20.5885,24.6617c0,19.2365,29.1071,33.7451,67.7041,33.7451
	c38.6013,0,67.7084-14.5086,67.7084-33.7451C355,155.8346,343.9014,145.4591,324.5494,139.375z M72.7095,307.5068
	c1.8612,0,3.6325-0.7873,4.8776-2.1692c0.6974-0.7701,17.264-19.1937,32.975-43.3334c1.981-3.0421,1.121-7.1153-1.9211-9.092
	c-3.0335-1.981-7.1153-1.121-9.092,1.9211c-10.1145,15.5355-20.811,28.859-26.8395,36.0341
	c-13.8069-16.4468-52.1515-65.1712-52.1515-98.9933c0-28.7563,23.3952-52.1515,52.1515-52.1515s52.1515,23.3952,52.1515,52.1515
	c0,9.9049-3.41,22.1074-10.1359,36.2652c-1.5574,3.2774-0.1626,7.1965,3.1148,8.754c3.2774,1.5574,7.1966,0.1626,8.754-3.1148
	c7.5731-15.9334,11.4109-30.0313,11.4109-41.9043c0-36.0042-29.2911-65.2953-65.2953-65.2953S7.4142,155.8699,7.4142,191.8741
	c0,46.0417,57.9533,110.7337,60.4177,113.4677C69.077,306.7195,70.8526,307.5068,72.7095,307.5068z M72.7095,164.3329
	c15.1889,0,27.5454,12.3565,27.5454,27.5412c0,15.1889-12.3565,27.5455-27.5454,27.5455S45.164,207.063,45.164,191.8741
	C45.164,176.6895,57.5205,164.3329,72.7095,164.3329z M72.7095,177.4767c-7.941,0-14.4017,6.4606-14.4017,14.3974
	c0,7.941,6.4606,14.4017,14.4017,14.4017s14.4017-6.4606,14.4017-14.4017C87.1111,183.9374,80.6505,177.4767,72.7095,177.4767z
	 M109.9662,279.5752c-3.4699-1.0825-7.1538,0.83-8.2405,4.2957c-1.091,3.4614,0.8343,7.1538,4.2957,8.2405
	c12.7116,4.0005,21.2517,10.3969,21.2517,15.9206c0,8.6042-20.7596,20.6013-54.5646,20.6013s-54.5646-11.9971-54.5646-20.6013
	c0-4.1716,4.869-8.9422,13.0197-12.7587c3.2859-1.536,4.7064-5.4509,3.1661-8.7368c-1.5403-3.2945-5.4723-4.7278-8.7368-3.1661
	C12.3121,289.5828,5,298.341,5,308.032c0,19.2365,29.1071,33.7451,67.7084,33.7451s67.7084-14.5086,67.7084-33.7451
	C140.4168,296.0349,129.3182,285.6593,109.9662,279.5752z"/>
</svg>
