<?xml version="1.0" encoding="utf-8"?>
<!-- Generator: Adobe Illustrator 23.0.6, SVG Export Plug-In . SVG Version: 6.00 Build 0)  -->
<svg version="1.0" id="Capa_1" xmlns="http://www.w3.org/2000/svg" xmlns:xlink="http://www.w3.org/1999/xlink" x="0px" y="0px"
	 viewBox="0 0 360 360" style="enable-background:new 0 0 360 360;" xml:space="preserve">
<path d="M355,63.3708c0,16.1049-13.0555,29.1605-29.1604,29.1605H34.1604C18.0555,92.5313,5,79.4756,5,63.3708
	s13.0555-29.1604,29.1604-29.1604h291.6792C341.9445,34.2104,355,47.2659,355,63.3708z M236.884,150.8521H34.1604
	C18.0555,150.8521,5,163.9077,5,180.0125c0,16.1048,13.0555,29.1604,29.1604,29.1604H236.884
	c16.1049,0,29.1605-13.0556,29.1605-29.1604C266.0445,163.9077,252.9889,150.8521,236.884,150.8521z M178.5632,267.4688H34.1604
	C18.0555,267.4688,5,280.5243,5,296.6292s13.0555,29.1605,29.1604,29.1605h144.4028c16.1049,0,29.1604-13.0556,29.1604-29.1605
	S194.6681,267.4688,178.5632,267.4688z"/>
</svg>
