<?xml version="1.0" encoding="utf-8"?>
<!-- Generator: Adobe Illustrator 23.0.6, SVG Export Plug-In . SVG Version: 6.00 Build 0)  -->
<svg version="1.0" id="Capa_1" xmlns="http://www.w3.org/2000/svg" xmlns:xlink="http://www.w3.org/1999/xlink" x="0px" y="0px"
	 viewBox="0 0 360 360" style="enable-background:new 0 0 360 360;" xml:space="preserve">
<style type="text/css">
	.st0{fill:#37E2A4;}
</style>
<path class="st0" d="M242.3743,232.4846h0.0744H242.3743z"/>
<path class="st0" d="M51.9875,232.4846h0.0744H51.9875z"/>
<path d="M226.6484,199.7936c0,3.7734-3.0557,6.8359-6.8359,6.8359c-3.7734,0-6.8359-3.0625-6.8359-6.8359
	s3.0625-6.8359,6.8359-6.8359C223.5928,192.9576,226.6484,196.0201,226.6484,199.7936z M192.4688,172.4498
	c-3.7734,0-6.8359,3.0625-6.8359,6.8359s3.0625,6.8359,6.8359,6.8359c3.7803,0,6.8359-3.0625,6.8359-6.8359
	S196.249,172.4498,192.4688,172.4498z M165.125,151.942c-3.7734,0-6.8359,3.0625-6.8359,6.8359s3.0625,6.8359,6.8359,6.8359
	c3.7803,0,6.8359-3.0625,6.8359-6.8359S168.9053,151.942,165.125,151.942z M56.9531,288.6608c-3.7734,0-6.8359,3.0625-6.8359,6.8359
	s3.0625,6.8359,6.8359,6.8359s6.8359-3.0625,6.8359-6.8359S60.7266,288.6608,56.9531,288.6608z M355,227.138
	c0,9.5635,0,17.7803,0,27.3438c0,11.308-9.1998,20.5078-20.5078,20.5078H206.6198c-9.8724,0-19.3716-2.9968-27.4709-8.6666
	c-0.2625-0.186,6.6186,5.077-147.0403-112.6809c-10.4439-6.7881-12.4776-21.2549-4.3011-30.6584
	c0.326-0.3733,1.2626-1.2537,80.2115-77.0821c2.6714-2.5669,6.9036-2.5381,9.5402,0.0677
	c16.1342,15.9401,24.2327,23.9415,46.2806,23.9415h19.0586c2.2859,0,4.4208,1.1429,5.6882,3.0454
	c16.3167,24.4829,27.5583,51.3796,42.1661,68.924c12.2213,14.6672,25.5267,21.2474,44.8622,18.3996
	c19.7545-2.9237,40.0675,3.1534,55.7211,16.6626C346.3751,189.9232,355,208.2175,355,227.138z M84.88,87.0847
	c9.9019,5.41,22.0869,4.1173,30.6038-3.0146c2.1628-1.8129,5.2172-2.1082,7.6897-0.7451
	c21.7355,11.9882,37.6004,17.0926,63.067,11.7736c-2.1437-3.6688-4.5104-7.592-7.0363-11.5158h-15.3638
	c-25.0099,0-36.588-9.0699-51.1403-23.2196L84.88,87.0847z M341.3279,247.6458H204.7324c-3.8445,0-7.5981-1.0753-10.8548-3.1104
	c-0.4341-0.2721-42.2728-32.3456-151.8699-116.2725l-4.0475,3.8883c-2.5587,3.1595-1.8135,7.8928,1.7015,10.0933
	c0.1825,0.1141,0.3602,0.2379,0.5319,0.3685l146.9118,112.5899c5.7634,3.9997,12.5084,6.1141,19.5139,6.1141h127.873
	c3.7693,0,6.8358-3.0666,6.8358-6.8359V247.6458z M341.3279,227.1373c0-14.9413-6.8979-29.4636-18.9237-39.8419
	c-12.6424-10.9108-28.9673-15.8265-44.7911-13.488c-7.7308,1.1409-15.0534,1.0336-21.832-0.3042l-11.8016,11.8016
	c-2.6708,2.6688-6.9973,2.6694-9.668,0c-2.6694-2.6701-2.6694-6.9986,0-9.668l7.1688-7.1689
	c-5.6916-2.9723-11.0708-7.0547-16.2224-12.2979l-8.6208,8.6256c-2.6708,2.6701-6.9973,2.6714-9.6681,0.0027
	c-2.6701-2.6694-2.6714-6.9979-0.0027-9.668l9.4151-9.4206c-4.0496-5.4332-7.782-11.3156-11.28-17.2314l-15.8101,15.8102
	c-2.6708,2.6688-6.9973,2.6694-9.6681,0c-2.6694-2.6702-2.6694-6.9987,0-9.6681l18.4584-18.4584
	c-1.6926-3.0447-3.1739-5.7306-4.7878-8.6359c-9.6202,2.3181-18.1036,3.4077-25.9506,3.4077
	c-16.8568,0.0007-30.7993-5.0052-46.9061-13.544c-13.6671,8.9509-31.7878,9.0945-45.7297-0.5353l-22.7247,21.8265l149.3707,114.3973
	c1.0268,0.5865,2.1896,0.8948,3.379,0.8948h136.5955V227.1373z M152.6563,261.317H11.8359C8.0612,261.317,5,264.3782,5,268.153
	s3.0612,6.8359,6.8359,6.8359h140.8203c3.7748,0,6.8359-3.0612,6.8359-6.8359C159.4922,264.3781,156.431,261.317,152.6563,261.317z
	 M152.6563,288.6608H84.2969c-3.7748,0-6.8359,3.0611-6.8359,6.8359c0,3.7748,3.0612,6.8359,6.8359,6.8359h68.3594
	c3.7748,0,6.8359-3.0612,6.8359-6.8359C159.4922,291.7219,156.431,288.6608,152.6563,288.6608z M248.3594,302.3326H180
	c-3.7748,0-6.8359,3.0611-6.8359,6.8359c0,3.7748,3.0612,6.8359,6.8359,6.8359h68.3594c3.7748,0,6.8359-3.0612,6.8359-6.8359
	C255.1953,305.3937,252.1342,302.3326,248.3594,302.3326z M348.1641,288.6608h-72.4611c-3.7746,0-6.8358,3.0611-6.8358,6.8359
	c0,3.7748,3.0612,6.8359,6.8358,6.8359h72.4611c3.7748,0,6.8359-3.0612,6.8359-6.8359
	C355,291.7219,351.9388,288.6608,348.1641,288.6608z"/>
</svg>
