<?xml version="1.0" encoding="utf-8"?>
<!-- Generator: Adobe Illustrator 23.0.6, SVG Export Plug-In . SVG Version: 6.00 Build 0)  -->
<svg version="1.0" id="Capa_1" xmlns="http://www.w3.org/2000/svg" xmlns:xlink="http://www.w3.org/1999/xlink" x="0px" y="0px"
	 viewBox="0 0 360 360" style="enable-background:new 0 0 360 360;" xml:space="preserve">
<path d="M180,5C83.3502,5,5,83.3502,5,180s78.3502,175,175,175s175-78.3502,175-175C354.8907,83.3954,276.6046,5.1093,180,5z
	 M180,343.3333c-90.2066,0-163.3333-73.1267-163.3333-163.3333S89.7934,16.6667,180,16.6667S343.3333,89.7934,343.3333,180
	C343.2304,270.1639,270.1639,343.2304,180,343.3333z M158.125,106.7917V253.209c0,3.2215-2.6119,5.8333-5.8333,5.8333
	s-5.8333-2.6119-5.8333-5.8333V106.7917c0-3.2214,2.6119-5.8333,5.8333-5.8333S158.125,103.5703,158.125,106.7917z
	 M213.5417,106.7917V253.209c0,3.2215-2.6119,5.8333-5.8333,5.8333s-5.8333-2.6119-5.8333-5.8333V106.7917
	c0-3.2214,2.6119-5.8333,5.8333-5.8333S213.5417,103.5703,213.5417,106.7917z"/>
</svg>
