<?xml version="1.0" encoding="utf-8"?>
<!-- Generator: Adobe Illustrator 23.0.6, SVG Export Plug-In . SVG Version: 6.00 Build 0)  -->
<svg version="1.0" id="Capa_1" xmlns="http://www.w3.org/2000/svg" xmlns:xlink="http://www.w3.org/1999/xlink" x="0px" y="0px"
	 viewBox="0 0 360 360" style="enable-background:new 0 0 360 360;" xml:space="preserve">
<path d="M270.7845,175.1817l-128.3333-87.5c-2.6628-1.814-6.2916-1.1258-8.1052,1.5367c-0.659,0.9674-1.0119,2.111-1.0126,3.2816
	v175c0.0018,3.2214,2.6144,5.8319,5.8362,5.8305c1.1707-0.0003,2.3139-0.3532,3.2816-1.0122l128.3333-87.5
	c2.661-1.8158,3.346-5.4453,1.5302-8.1063C271.9045,176.1106,271.3854,175.5919,270.7845,175.1817z M145,256.4575V103.5425
	L257.1461,180L145,256.4575z M180,5C83.3502,5,5,83.3502,5,180s78.3502,175,175,175s175-78.3502,175-175
	C354.8907,83.3954,276.6046,5.1093,180,5z M180,343.3333c-90.2062,0-163.3333-73.1267-163.3333-163.3333
	S89.7938,16.6667,180,16.6667c90.2066,0,163.3333,73.1267,163.3333,163.3333C343.2304,270.1639,270.1639,343.2304,180,343.3333z"/>
</svg>
