<?xml version="1.0" encoding="utf-8"?>
<!-- Generator: Adobe Illustrator 23.0.6, SVG Export Plug-In . SVG Version: 6.00 Build 0)  -->
<svg version="1.0" id="Capa_1" xmlns="http://www.w3.org/2000/svg" xmlns:xlink="http://www.w3.org/1999/xlink" x="0px" y="0px"
	 viewBox="0 0 360 360" style="enable-background:new 0 0 360 360;" xml:space="preserve">
<path d="M22.0898,104.4796C27.3752,93.4587,33.836,82.963,41.2972,73.276c6.5608-8.5116,13.9386-16.4563,21.9333-23.6257
	c5.2603-4.7184,13.3551-4.2766,18.0818,0.9921c4.7185,5.2603,4.2767,13.355-0.992,18.0818
	c-6.8276,6.119-13.13,12.9133-18.7405,20.1827c-6.3608,8.2698-11.8879,17.2399-16.3979,26.6435
	c-2.2008,4.5934-6.7859,7.2695-11.5544,7.2695c-1.859,0-3.7431-0.4001-5.5271-1.2589
	C21.723,118.5016,19.0303,110.8486,22.0898,104.4796z M180,5c-22.8087,0-44.9921,4.3267-65.9335,12.8466
	c-6.5525,2.6677-9.6953,10.1455-7.036,16.6897c2.6594,6.5358,10.1122,9.687,16.6897,7.036
	C141.5854,34.2945,160.5176,30.6097,180,30.6097c82.373,0,149.3903,67.0172,149.3903,149.3903S262.373,329.3903,180,329.3903
	S30.6097,262.373,30.6097,180c0-7.0694-5.7355-12.8049-12.8049-12.8049C10.7355,167.1951,5,172.9306,5,180
	c0,96.4951,78.5049,175,175,175s175-78.5049,175-175S276.4951,5,180,5z M180,60.4878c-7.0693,0-12.8049,5.7355-12.8049,12.8049
	v102.439c0,4.5017,2.3593,8.67,6.2191,10.9792l85.3658,51.2195c2.0591,1.2422,4.335,1.8257,6.5775,1.8257
	c4.3433,0,8.5865-2.2175,10.9875-6.2191c3.6431-6.0607,1.6757-13.9303-4.3933-17.565l-79.1469-47.4931V73.2927
	C192.8049,66.2233,187.0693,60.4878,180,60.4878z"/>
</svg>
