<?xml version="1.0" encoding="utf-8"?>
<!-- Generator: Adobe Illustrator 23.0.6, SVG Export Plug-In . SVG Version: 6.00 Build 0)  -->
<svg version="1.0" id="Capa_1" xmlns="http://www.w3.org/2000/svg" xmlns:xlink="http://www.w3.org/1999/xlink" x="0px" y="0px"
	 viewBox="0 0 360 360" style="enable-background:new 0 0 360 360;" xml:space="preserve">
<path d="M313.3334,46.6666C313.3334,23.6544,294.6787,5,271.6667,5H88.3333c-23.012,0-41.6667,18.6544-41.6667,41.6666L107.2726,180
	l-60.606,133.3334C46.6666,336.3445,65.3213,355,88.3333,355h183.3334c23.012,0,41.6666-18.6555,41.6666-41.6666L252.7274,180
	L313.3334,46.6666z M286.4655,317.66c-1.8745,6.4012-7.7994,11.09-14.7987,11.09h-46.8827l-25.8257-31.7448
	c0-2.7762-2.3438-5.2415-5.9763-6.8287c0.0853-0.6041,0.1445-1.2164,0.1445-1.8439v-97.9061
	c3.5515-2.8443,5.8317-7.2099,5.8317-12.1139L230,126.6875c0-8.572-6.9489-15.5209-15.5209-15.5209L146.1875,94.5
	c-8.572,0-15.5209,6.9489-15.5209,15.5208l31.0417,68.2917c0,4.5884,2.0029,8.699,5.1683,11.5405v98.4796
	c0,0.7267,0.0744,1.4345,0.1881,2.1292c-3.2758,1.5899-5.3564,3.9287-5.3564,6.5435L135.8826,328.75H88.3333
	c-6.9994,0-12.9242-4.6888-14.7988-11.09l57.6349-126.7979c3.1376-6.9016,3.1376-14.8228,0-21.7244L73.5345,42.34
	c1.8746-6.4012,7.7994-11.09,14.7988-11.09h183.3334c6.9993,0,12.9242,4.6887,14.7987,11.09l-57.6349,126.7979
	c-3.1376,6.9016-3.1376,14.8228,0,21.7244L286.4655,317.66z"/>
</svg>
