<?xml version="1.0" encoding="utf-8"?>
<!-- Generator: Adobe Illustrator 23.0.6, SVG Export Plug-In . SVG Version: 6.00 Build 0)  -->
<svg version="1.0" id="Capa_1" xmlns="http://www.w3.org/2000/svg" xmlns:xlink="http://www.w3.org/1999/xlink" x="0px" y="0px"
	 viewBox="0 0 360 360" style="enable-background:new 0 0 360 360;" xml:space="preserve">
<path d="M306.3119,131.3118c0,22.9681-7.4243,50.2401-22.0742,81.0627c-3.0128,6.34-10.5943,9.0383-16.9343,6.0255
	c-6.34-3.0128-9.0382-10.5943-6.0255-16.9343c13.011-27.3879,19.6077-50.9932,19.6077-70.154
	c0-55.6282-45.2574-100.8856-100.8856-100.8856S79.1144,75.6837,79.1144,131.3118c0,65.4279,74.1765,159.6838,100.8856,191.4998
	c11.662-13.8801,32.3539-39.654,51.9202-69.707c3.8239-5.8848,11.7199-7.5484,17.5881-3.7163
	c5.8848,3.8239,7.5484,11.7034,3.7162,17.5882c-30.3923,46.6976-62.4399,82.3373-63.7891,83.8271
	C187.027,353.4771,183.6004,355,180,355c-3.5921,0-7.027-1.5229-9.4355-4.188c-4.7674-5.2889-116.8763-130.4337-116.8763-219.5001
	C53.6881,61.6628,110.351,5,180,5S306.3119,61.6628,306.3119,131.3118z M180,78.0342c29.3826,0,53.2859,23.9033,53.2859,53.2776
	c0,29.3826-23.9033,53.2859-53.2859,53.2859s-53.2859-23.9033-53.2859-53.2859C126.7141,101.9376,150.6174,78.0342,180,78.0342z
	 M180,103.4605c-15.3617,0-27.8596,12.4979-27.8596,27.8513c0,15.3617,12.4979,27.8597,27.8596,27.8597
	s27.8596-12.498,27.8596-27.8597C207.8596,115.9584,195.3617,103.4605,180,103.4605z"/>
</svg>
