<?xml version="1.0" encoding="utf-8"?>
<!-- Generator: Adobe Illustrator 16.0.3, SVG Export Plug-In . SVG Version: 6.00 Build 0)  -->
<!DOCTYPE svg PUBLIC "-//W3C//DTD SVG 1.0//EN" "http://www.w3.org/TR/2001/REC-SVG-20010904/DTD/svg10.dtd">
<svg version="1.0" id="Capa_1" xmlns="http://www.w3.org/2000/svg" xmlns:xlink="http://www.w3.org/1999/xlink" x="0px" y="0px"
	 width="81.9922px" height="33.7075px" viewBox="0 0 81.9922 33.7075" enable-background="new 0 0 81.9922 33.7075"
	 xml:space="preserve">
<g id="Grupo_1198" transform="translate(-58.263 -17.061)">
	<g id="Grupo_1195" transform="translate(58.263 17.061)">
		<g id="Grupo_1186" transform="translate(0 0)">
			<path id="Trazado_2071" fill="#10172D" d="M21.7339,0.4053C16.3389-0.8579,9.0859,0.9121,4.979,4.6499
				C4.9453,4.6816,4.9136,4.7148,4.8838,4.75l0,0C4.8149,4.8149,4.7715,4.9028,4.7622,4.9971
				c-0.02,0.1001-0.0132,0.2031,0.019,0.2998l6.0747,18.0005c-2.4292-0.2207-4.6606-1.4316-6.1709-3.3457
				c-0.8198-1.0664-4.9302,0.9199-4.6729,1.252c2.751,3.5762,7.1548,4.2168,11.417,3.7891l2.5,7.4053
				c0,0,0.4238,1.2588,1.292,0.4854c0.3999-0.3516-0.4409-4.0996-1.4731-8.2188c0.7539-0.1377,1.5-0.3008,2.208-0.4736
				c5.6001-1.373,12.1592-4.7412,14.3511-10.4248C32.6572,7.6689,27.3599,1.7222,21.7339,0.4053z M25.8682,14.1309
				c-1.2241,4.9741-6.9683,8.7407-12.46,9.1997c-0.7842-3.0703-1.6133-6.1714-2.0723-8.0903
				c-1.27-5.3003-1.8311-7.8154-2.4082-10.8311l0,0C9.019,4.3481,9.106,4.2813,9.188,4.209
				C16.0239-2.0181,28.106,5.0391,25.8682,14.1309L25.8682,14.1309z"/>
			<path id="Trazado_2072" fill="#10172D" d="M78.9473,21.604c-1.3398,2.0137-8.0059,2.918-8.4258-0.5479
				c-0.334-2.7314,1.1992-5.231,0.5-8.0454c-0.1465-0.5767-3.1133,0.1392-3.0898,0.8271c0.1289,3.6313-0.8867,10.9204-6.1992,9.1782
				c-3.9736-1.3008-2.3262-6.7939-1.3242-9.5063c0.2383-0.6445-2.1777,0.0371-2.3945,0.1401
				c-3.4082,1.6304-5.3818,4.8486-7.4063,7.8994c-0.0879-0.626-0.125-1.2588-0.1123-1.8906
				c-0.0566-3.0576,1.1797-5.9961,3.4053-8.0928c0.3936-0.3291-0.0996-0.4268-0.377-0.438
				c-3.0449-0.1182-7.2383-0.2407-9.7578,1.9131c-1.8652,1.6001-2.3135,3.8091-2.5146,6.1587
				c-0.1587,1.8516-1.2349,4.8242-3.4561,5.1504c-2.5127,0.3672-3.8237-1.127-4.2759-3.0547
				c4.2529-2.0801,10.2651-9.8345,3.5913-8.7754c-3.5107,0.6206-6.269,3.3525-6.9233,6.8574
				c-0.7339,3.7813,2.1401,6.3896,5.7603,6.1396c3.2002-0.2217,6.4004-1.6494,7.8379-4.6514
				c1.4824-3.1006-0.1592-8.3296,4.7891-8.6079c1.251-0.0698,2.3789-0.5488,1.4414,0.6641c-0.9453,1.2515-1.6514,2.667-2.082,4.1753
				c-0.752,2.2871-0.7168,4.7598,0.0996,7.0244c0.2998,0.7813,2.6191-0.125,3.0215-0.3076c1.377-0.6309,2.1992-2.2393,2.9883-3.4385
				c0.7578-1.1445,1.5469-2.4453,2.4688-3.6138c-0.5049,1.6665-0.499,3.4448,0.0176,5.1079
				c0.9453,2.6533,4.5527,2.8994,6.8779,2.5703c1.5381-0.1934,2.9902-0.8164,4.1885-1.7998c0.5127,1.25,2.1064,1.4893,3.6006,1.7393
				c3.7051,0.6211,8.5518,0.0137,10.7871-3.3457C82.1406,20.7935,79.4336,20.8755,78.9473,21.604z M34.1069,16.1401
				c0.6763-1.3101,3.4341-4.1333,2.7471-1.0732c-0.311,0.9492-0.7886,1.835-1.4111,2.6162
				c-0.4814,0.6748-1.0166,1.3105-1.6001,1.8994c-0.1455,0.1738-0.3135,0.3262-0.5,0.4551
				C33.2642,18.6938,33.5269,17.3535,34.1069,16.1401z"/>
			<path id="Trazado_2073" fill="#10172D" d="M64.8643,10.4189c1.1748-0.0532,2.3057-0.457,3.249-1.1592
				c2.1475-1.9165,3.9395-4.1978,5.2939-6.7378c0.4111-0.7827-1.7295-0.5-1.9434-0.4658c-0.8311,0.1499-2.3994,0.4751-2.8457,1.3237
				c-1.251,2.3569-2.9092,4.4727-4.9004,6.249C62.8643,10.3662,64.4707,10.4512,64.8643,10.4189z"/>
		</g>
		<g id="Grupo_1187" transform="translate(47.602 27.992)">
			<path id="Trazado_2074" fill="#37E2A4" d="M0.8052,4.0944c0.4443-0.0039,0.8086,0.3545,0.8115,0.7998
				c0.0039,0.4443-0.3545,0.8086-0.7998,0.8115C0.3716,5.7097,0.0083,5.3513,0.0054,4.9059c0-0.0029,0-0.0049,0-0.0068
				C0.0064,4.4577,0.3628,4.0983,0.8052,4.0944z"/>
			<path id="Trazado_2075" fill="#37E2A4" d="M2.9156,4.2077c-0.2266-0.8848-0.2266-1.8145,0-2.6992
				c0.3105-0.9609,1.2383-1.584,2.2451-1.5078c0.6465-0.0225,1.2725,0.2285,1.7236,0.6914c0.1426,0.1279,0.2236,0.3086,0.2266,0.5
				c0.0078,0.2998-0.2285,0.5488-0.5293,0.5566c-0.0078,0-0.0176,0-0.0254,0C6.3511,1.7341,6.1626,1.6354,6.0337,1.4763
				C5.814,1.237,5.4957,1.112,5.1714,1.1354C4.7066,1.1081,4.2837,1.405,4.1519,1.8513c-0.1523,0.6641-0.1523,1.3545,0,2.0186
				C4.2828,4.3171,4.7066,4.614,5.1714,4.5866C5.4966,4.61,5.814,4.4841,6.0337,4.2448C6.1636,4.0856,6.3521,3.988,6.5562,3.9733
				C6.855,3.9655,7.1031,4.2018,7.1109,4.5016c0,0.0088,0,0.0176,0,0.0264c-0.0029,0.1914-0.085,0.3721-0.2266,0.5
				C6.4332,5.4909,5.8072,5.7419,5.1607,5.7194C4.1529,5.7946,3.2251,5.1706,2.9156,4.2077z"/>
			<path id="Trazado_2076" fill="#37E2A4" d="M8.3257,4.2077c-0.2422-0.8828-0.2422-1.8164,0-2.6992
				c0.5127-1.2432,1.9355-1.835,3.1787-1.3223c0.5986,0.248,1.0742,0.7227,1.3213,1.3223c0.2422,0.8828,0.2422,1.8164,0,2.6992
				C12.313,5.4509,10.8902,6.0417,9.648,5.53C9.0484,5.2819,8.5728,4.8073,8.3257,4.2077z M11.604,3.8669
				c0.0928-0.3271,0.1309-0.668,0.1123-1.0078c0.0176-0.3408-0.0195-0.6816-0.1123-1.0107
				c-0.1357-0.4434-0.5566-0.7393-1.0205-0.7148C10.1167,1.1091,9.6919,1.403,9.5503,1.8483
				C9.4585,2.1774,9.4195,2.5182,9.4371,2.8591C9.4195,3.1989,9.4576,3.5397,9.5503,3.8669
				c0.1406,0.4463,0.5654,0.7412,1.0332,0.7158C11.0474,4.6081,11.4683,4.3122,11.604,3.8669L11.604,3.8669z"/>
			<path id="Trazado_2077" fill="#37E2A4" d="M14.3707,0.738c-0.0137-0.3525,0.2607-0.6475,0.6133-0.6611
				c0.332-0.0127,0.6172,0.2314,0.6572,0.5605h0.0107c0.3467-0.4355,0.8857-0.6719,1.4414-0.6328
				c0.5898-0.0254,1.1533,0.2461,1.5,0.7246h0.0107c0.4463-0.4883,1.0859-0.7539,1.7471-0.7246
				c1.0361-0.0615,1.9258,0.7295,1.9863,1.7656c0.0059,0.0879,0.0049,0.1758-0.002,0.2637v2.9492
				c0.0195,0.3506-0.249,0.6504-0.5996,0.6699c-0.3516,0.0195-0.6514-0.248-0.6709-0.5996c-0.001-0.0234-0.001-0.0469,0-0.0703
				V2.3307c0-0.7012-0.3506-1.1934-1.0322-1.1934c-0.5801,0-1.0518,0.4688-1.0527,1.0488c0,0.0488,0.002,0.0957,0.0088,0.1445
				v2.6523c0.0205,0.3506-0.249,0.6504-0.5986,0.6699c-0.3516,0.0195-0.6514-0.248-0.6709-0.5996
				c-0.001-0.0234-0.001-0.0469,0-0.0703V2.3307c0-0.7012-0.3525-1.1934-1.0332-1.1934c-0.5811,0-1.0518,0.4697-1.0527,1.0508
				c0,0.0469,0.0029,0.0947,0.0098,0.1426v2.6523c0.0244,0.3516-0.2412,0.6553-0.5918,0.6797
				c-0.3506,0.0234-0.6553-0.2412-0.6787-0.5918c-0.002-0.0293-0.002-0.0586,0-0.0879L14.3707,0.738z"/>
		</g>
	</g>
</g>
</svg>
