<?xml version="1.0" standalone="no"?>
<!DOCTYPE svg PUBLIC "-//W3C//DTD SVG 20010904//EN"
 "http://www.w3.org/TR/2001/REC-SVG-20010904/DTD/svg10.dtd">
<svg version="1.0" xmlns="http://www.w3.org/2000/svg"
 width="512.000000pt" height="512.000000pt" viewBox="0 0 512.000000 512.000000"
 preserveAspectRatio="xMidYMid meet">
<metadata>
Created by potrace 1.11, written by Peter Selinger 2001-2013
</metadata>
<g transform="translate(0.000000,512.000000) scale(0.100000,-0.100000)"
fill="#000000" stroke="none">
<path d="M1038 3585 c-1 -1 -27 -6 -56 -9 -169 -20 -377 -97 -514 -189 -84
-57 -118 -87 -118 -107 0 -9 83 -263 185 -563 204 -605 196 -561 94 -531 -86
25 -167 73 -238 142 l-66 63 -58 -4 c-64 -6 -207 -67 -207 -89 0 -27 125 -130
205 -168 123 -58 209 -74 381 -72 l111 1 73 -217 c87 -260 93 -272 124 -272
35 0 45 19 40 75 -5 49 -63 327 -84 395 -13 45 -13 46 8 47 10 1 58 11 107 23
326 78 609 240 767 438 163 205 195 425 92 627 -109 213 -307 356 -554 400
-65 11 -282 19 -292 10z m47 -119 c195 -20 414 -175 504 -356 51 -104 56 -127
55 -260 -1 -126 -23 -201 -90 -302 -52 -77 -167 -188 -248 -236 -119 -72 -290
-132 -384 -136 l-45 -1 -33 125 c-18 69 -35 134 -38 145 -2 11 -23 94 -45 185
-23 91 -43 174 -46 185 -2 11 -22 101 -45 200 -67 296 -68 302 -44 321 89 71
219 128 304 133 25 2 46 4 48 6 1 1 15 1 30 -1 15 -1 50 -5 77 -8z"/>
<path d="M4344 3445 c-60 -20 -104 -48 -104 -66 0 -12 -66 -115 -117 -181 -51
-67 -50 -66 -132 -151 -54 -55 -62 -68 -52 -81 21 -25 134 -15 209 19 80 36
211 170 310 318 79 118 91 145 71 158 -23 15 -117 7 -185 -16z"/>
<path d="M3062 2908 c-243 -19 -383 -109 -449 -288 -20 -53 -26 -85 -39 -200
-16 -145 -85 -266 -175 -304 -42 -18 -135 -14 -175 7 -52 27 -114 112 -114
156 0 5 30 28 66 52 193 125 363 365 322 453 -32 71 -208 60 -348 -22 -200
-116 -308 -378 -228 -554 32 -68 73 -109 147 -145 46 -22 72 -27 146 -29 263
-7 496 149 544 366 5 25 13 68 16 95 30 241 80 321 211 339 91 13 144 16 144
10 0 -4 -18 -35 -39 -68 -54 -83 -96 -176 -120 -266 -25 -95 -23 -277 4 -357
20 -60 33 -65 110 -47 119 27 160 63 263 224 84 133 132 200 142 200 4 0 4
-21 -1 -46 -11 -59 -3 -165 16 -225 20 -60 74 -113 144 -141 46 -18 76 -22
176 -22 137 -1 223 20 308 74 l49 31 20 -26 c26 -33 68 -50 175 -70 275 -52
542 17 661 169 26 34 17 46 -32 40 -17 -3 -43 -6 -57 -8 -33 -5 -61 -20 -80
-42 -71 -86 -305 -128 -414 -73 -71 35 -90 66 -92 152 -1 40 3 95 8 122 5 28
11 61 13 75 3 14 8 45 12 70 11 63 8 154 -6 179 -14 28 -59 27 -130 -2 l-55
-22 -1 -46 c-10 -402 -156 -611 -375 -534 -100 36 -151 111 -155 230 -3 76 20
199 54 297 26 73 18 80 -66 62 -131 -27 -277 -151 -415 -349 -42 -60 -83 -119
-91 -130 -13 -18 -14 -8 -11 100 3 112 9 167 21 187 3 4 7 17 9 27 5 26 60
135 87 173 11 17 38 49 59 72 21 22 35 44 31 47 -11 11 -189 15 -290 7z m-752
-195 c0 -71 -91 -224 -187 -316 l-30 -27 4 56 c7 118 54 219 136 289 55 47 77
46 77 -2z"/>
<path d="M3210 1868 c-54 -27 -72 -60 -78 -140 -6 -92 14 -147 67 -176 21 -12
55 -22 76 -22 80 0 149 60 112 98 -16 15 -20 15 -60 -5 -49 -26 -71 -26 -93
-2 -31 35 -30 142 2 174 21 21 64 19 94 -5 14 -11 30 -20 36 -20 20 0 36 28
29 50 -17 52 -121 79 -185 48z"/>
<path d="M3583 1880 c-71 -16 -110 -60 -122 -137 -13 -90 20 -167 85 -198 64
-30 138 -8 187 56 37 51 27 189 -18 239 -24 27 -94 48 -132 40z m71 -88 c19
-22 27 -105 13 -145 -17 -50 -75 -59 -109 -16 -31 37 -21 147 16 171 20 14 63
8 80 -10z"/>
<path d="M4155 1874 c-21 -7 -42 -19 -47 -26 -5 -9 -10 -10 -15 -2 -25 35
-122 47 -154 18 -17 -15 -19 -15 -34 0 -9 9 -22 16 -29 16 -31 0 -38 -30 -40
-172 -1 -124 1 -145 17 -160 19 -20 26 -21 47 -8 12 7 16 34 17 122 2 102 5
115 24 131 12 9 32 17 45 17 41 0 54 -35 57 -154 3 -112 10 -129 48 -119 29 8
35 29 33 135 -1 83 2 100 18 118 19 20 53 26 75 12 22 -14 31 -56 31 -150 0
-113 18 -143 64 -104 23 18 18 248 -6 284 -28 43 -94 62 -151 42z"/>
<path d="M2974 1613 c-22 -49 4 -91 50 -79 29 7 45 49 29 75 -15 24 -69 26
-79 4z"/>
</g>
</svg>
