<?xml version="1.0" encoding="utf-8"?>
<!-- Generator: Adobe Illustrator 16.0.3, SVG Export Plug-In . SVG Version: 6.00 Build 0)  -->
<!DOCTYPE svg PUBLIC "-//W3C//DTD SVG 1.0//EN" "http://www.w3.org/TR/2001/REC-SVG-20010904/DTD/svg10.dtd">
<svg version="1.0" id="Capa_1" xmlns="http://www.w3.org/2000/svg" xmlns:xlink="http://www.w3.org/1999/xlink" x="0px" y="0px"
	 width="360px" height="360px" viewBox="0 0 360 360" enable-background="new 0 0 360 360" xml:space="preserve">
<path d="M85.7822,345.9365c-12.1104-12.1094-12.1104-31.7393,0-43.8232l122.084-122.0845L85.7559,57.9063
	c-12.084-12.1104-12.084-31.7139,0-43.8242c12.1104-12.1104,31.7402-12.1104,43.8242,0L273.29,157.793
	c0.1299,0.1162,0.2852,0.1426,0.3896,0.2588c6.0674,6.0557,9.0752,14.0166,9.0498,21.9771c0,7.9351-3.0078,15.8833-9.0762,21.9507
	c-0.0781,0.0781-0.1816,0.1045-0.2588,0.1816L129.6055,345.9365C117.4961,358.0205,97.8916,358.0205,85.7822,345.9365z"/>
</svg>
