<?xml version="1.0" encoding="utf-8"?>
<!-- Generator: Adobe Illustrator 16.0.3, SVG Export Plug-In . SVG Version: 6.00 Build 0)  -->
<!DOCTYPE svg PUBLIC "-//W3C//DTD SVG 1.0//EN" "http://www.w3.org/TR/2001/REC-SVG-20010904/DTD/svg10.dtd">
<svg version="1.0" id="Capa_1" xmlns="http://www.w3.org/2000/svg" xmlns:xlink="http://www.w3.org/1999/xlink" x="0px" y="0px"
	 width="360px" height="360px" viewBox="0 0 360 360" enable-background="new 0 0 360 360" xml:space="preserve">
<path d="M229.8184,345.9365L86.0288,202.1611c-0.0771-0.0771-0.1807-0.1035-0.2588-0.1816
	c-6.0684-6.0674-9.0762-14.0156-9.0762-21.9507c-0.0254-7.9604,2.9824-15.9214,9.0498-21.9771
	c0.1045-0.1162,0.2598-0.1426,0.3896-0.2588L229.8438,14.082c12.084-12.1104,31.7139-12.1104,43.8242,0
	c12.084,12.1104,12.084,31.7139,0,43.8242L151.5571,180.0288l122.0845,122.0845c12.1104,12.084,12.1104,31.7139,0,43.8232
	C261.5322,358.0205,241.9277,358.0205,229.8184,345.9365z"/>
</svg>
