<?xml version="1.0" encoding="utf-8"?>
<!-- Generator: Adobe Illustrator 16.0.3, SVG Export Plug-In . SVG Version: 6.00 Build 0)  -->
<!DOCTYPE svg PUBLIC "-//W3C//DTD SVG 1.0//EN" "http://www.w3.org/TR/2001/REC-SVG-20010904/DTD/svg10.dtd">
<svg version="1.0" id="Capa_1" xmlns="http://www.w3.org/2000/svg" xmlns:xlink="http://www.w3.org/1999/xlink" x="0px" y="0px"
	 width="360px" height="360px" viewBox="0 0 360 360" enable-background="new 0 0 360 360" xml:space="preserve">
<path d="M13.7744,230.1055L157.5498,86.3164c0.0771-0.0771,0.1035-0.1807,0.1816-0.2588
	c6.0674-6.0684,14.0156-9.0762,21.9507-9.0762c7.9604-0.0254,15.9214,2.9824,21.9771,9.0498
	c0.1162,0.1045,0.1426,0.2598,0.2588,0.3896l143.7109,143.71c12.1104,12.084,12.1104,31.7139,0,43.8242
	c-12.1104,12.084-31.7139,12.084-43.8242,0L179.6821,151.8447L57.5977,273.9287c-12.084,12.1104-31.7139,12.1104-43.8232,0
	C1.6904,261.8193,1.6904,242.2148,13.7744,230.1055z"/>
</svg>
