<?xml version="1.0" encoding="utf-8"?>
<!-- Generator: Adobe Illustrator 16.0.3, SVG Export Plug-In . SVG Version: 6.00 Build 0)  -->
<!DOCTYPE svg PUBLIC "-//W3C//DTD SVG 1.0//EN" "http://www.w3.org/TR/2001/REC-SVG-20010904/DTD/svg10.dtd">
<svg version="1.0" id="Capa_1" xmlns="http://www.w3.org/2000/svg" xmlns:xlink="http://www.w3.org/1999/xlink" x="0px" y="0px"
	 width="360px" height="360px" viewBox="0 0 360 360" enable-background="new 0 0 360 360" xml:space="preserve">
<path fill="none" d="M346.8848,226.5029V101.1519c-0.0283-20.3594-16.5342-36.8555-36.8887-36.8887H70.4531
	c-31.646,0.0381-57.2905,25.6738-57.3379,57.3184v104.9019C8.0054,230.3135,4.9907,236.3232,5,242.7139v0.7773
	c0.0093,11.1875,9.0728,20.25,20.2505,20.25h26.0234c3.5269,20.8945,23.3125,34.9727,44.1982,31.457
	c16.1074-2.7207,28.7354-15.3398,31.4468-31.457h106.1621c3.5176,20.8945,23.3027,34.9727,44.1982,31.457
	c16.1074-2.7207,28.7256-15.3398,31.4463-31.457H334.75c11.1768,0,20.2402-9.0625,20.25-20.25v-0.7773
	C355,236.3232,351.9941,230.3232,346.8848,226.5029z M51.2739,250.9619H25.2505c-4.124,0-7.4707-3.3379-7.4707-7.4707v-0.7773
	c0.0093-4.1152,3.3467-7.4512,7.4609-7.4707h32.5273C54.4502,239.9268,52.2314,245.3018,51.2739,250.9619z M89.1011,282.9111v0.0098
	c-14.1353-0.0098-25.5781-11.4727-25.5688-25.5977c0.019-14.1348,11.481-25.5684,25.6069-25.5684
	c14.1162,0.0176,25.5596,11.4707,25.5596,25.5879C114.6797,271.4678,103.2271,282.9111,89.1011,282.9111z M270.8984,282.9111
	l0.0381,0.0098c-14.126,0-25.5781-11.4531-25.5781-25.5781c0-14.1367,11.4521-25.5879,25.5781-25.5879
	s25.5781,11.4512,25.5781,25.5879C296.4961,271.4775,285.0342,282.9111,270.8984,282.9111z M286.8066,222.3877
	c-19.2451-8.7988-41.9883-0.3223-50.7861,18.9219c-1.3945,3.0527-2.3896,6.2773-2.9395,9.5859v0.0566H126.9189
	c-3.5078-20.8672-23.2749-34.9551-44.1509-31.4473c-3.3086,0.5605-6.5317,1.5547-9.5845,2.9395H25.895V121.5815
	c0.0283-24.5967,19.9565-44.5244,44.5581-44.5527h239.5244c10.8643-0.0049,20.4014,7.252,23.293,17.7285h-16.7236
	c-7.9541,0.0098-14.4102,6.4609-14.4199,14.415v49.2979c0.0098,7.959,6.4658,14.4063,14.4199,14.416h17.5488v49.5015H286.8066z
	 M334.0957,107.5415v52.5596h-17.5488c-0.9004,0-1.6299-0.7305-1.6299-1.6309v-49.2979c0-0.9014,0.7295-1.6309,1.6299-1.6309
	H334.0957z M334.7969,250.9424h-26.0713c-0.957-5.6602-3.1758-11.0352-6.4941-15.7188h32.5273
	c4.1152,0.0195,7.4521,3.3574,7.4521,7.4707l0.0469,0.7969C342.249,247.6064,338.9111,250.9424,334.7969,250.9424z
	 M89.1011,239.7549c-9.7173,0-17.5859,7.8691-17.5859,17.5879c0,9.707,7.8687,17.5859,17.5859,17.5859
	c9.708,0,17.5771-7.8789,17.5771-17.5859C106.6685,247.6338,98.7998,239.7744,89.1011,239.7549z M89.1201,262.1299
	c-0.0093,0-0.019,0-0.019,0v-0.0391c-2.645,0-4.7876-2.1426-4.7876-4.7969c0-2.6348,2.1426-4.7773,4.7876-4.7773
	c2.6357,0,4.7783,2.1426,4.7783,4.7773C93.8984,259.9482,91.7651,262.1104,89.1201,262.1299z M270.8984,239.7549
	c-9.708,0-17.5762,7.8691-17.5762,17.5879c0,9.707,7.8682,17.5859,17.5762,17.5859s17.5869-7.8789,17.5869-17.5859
	C288.4658,247.6338,280.6064,239.7744,270.8984,239.7549z M270.918,262.1299c0,0-0.0098,0-0.0195,0v-0.0391
	c-2.6445,0-4.7871-2.1426-4.7871-4.7969c0-2.6348,2.1426-4.7773,4.7871-4.7773c2.6455,0,4.7881,2.1426,4.7881,4.7773
	C275.7051,259.9482,273.5723,262.1104,270.918,262.1299z M268.832,94.7573H71.9604c-17.0269,0.0137-30.8306,13.8184-30.8491,30.8535
	V158.48c0.0093,7.959,6.4561,14.4063,14.4194,14.415h213.311c7.9541-0.0146,14.4004-6.4658,14.4102-14.4248v-49.2979
	C283.2422,101.2183,276.7861,94.7671,268.832,94.7573z M92.6851,160.1011H55.5308c-0.9004,0-1.6304-0.7305-1.6304-1.6309H53.853
	v-32.873c0.0093-9.9639,8.0864-18.0371,18.0508-18.0557h20.7813V160.1011z M155.7866,160.1011h-50.2651v-52.5596h50.2749
	L155.7866,160.1011z M218.832,160.1011h-50.2559l-0.0098-52.5596h50.2656V160.1011z M270.4248,158.4702
	c0,0.9004-0.7305,1.6309-1.6309,1.6309h-37.1543v-52.5596h37.2021c0.9004,0,1.6299,0.7295,1.6299,1.6309L270.4248,158.4702z
	 M326.502,200.374v5.7266c0,3.5352-2.873,6.3984-6.3994,6.3984c-0.0098,0-0.0195,0-0.0283,0
	c-3.5361-0.0195-6.3809-2.9004-6.3613-6.4375v-5.6875c0.1328-3.3379,2.8057-6.0117,6.1426-6.1426
	C323.3828,194.0986,326.3594,196.8467,326.502,200.374z"/>
</svg>
