<?xml version="1.0" encoding="utf-8"?>
<!-- Generator: Adobe Illustrator 16.0.3, SVG Export Plug-In . SVG Version: 6.00 Build 0)  -->
<!DOCTYPE svg PUBLIC "-//W3C//DTD SVG 1.0//EN" "http://www.w3.org/TR/2001/REC-SVG-20010904/DTD/svg10.dtd">
<svg version="1.0" id="Capa_1" xmlns="http://www.w3.org/2000/svg" xmlns:xlink="http://www.w3.org/1999/xlink" x="0px" y="0px"
	 width="360px" height="360px" viewBox="0 0 360 360" enable-background="new 0 0 360 360" xml:space="preserve">
<path d="M87.5791,138.8296l9.334,84.0825c0.3438,3.0518,2.9238,5.3633,5.998,5.3633h150.8682c3.0742,0,5.6543-2.3115,5.998-5.3633
	l9.334-84.0825c23.9326-11.731,33.8203-40.6338,22.0928-64.563c-8.1289-16.5811-25.0098-27.0669-43.4756-27.0107
	c-1.4805,0-2.9688,0.0674-4.4502,0.2056c-13.2227-34.2017-51.6797-51.2017-85.8818-37.9712
	c-17.7412,6.8623-31.6816,21.0015-38.2998,38.8389c-26.0127-5.7588-51.7783,10.665-57.5293,36.6812
	C56.7432,106.8076,67.498,129.0654,87.5791,138.8296z M75.3506,82.0332c5.5127-13.7202,18.8184-22.71,33.6035-22.71
	c4.1211-0.0073,8.2197,0.6919,12.1016,2.0679c3.1406,1.1182,6.5957-0.5234,7.7109-3.6646c0.0527-0.1499,0.1045-0.2993,0.1426-0.4526
	c7.8076-28.9736,37.627-46.127,66.6006-38.3188c18.1816,4.9023,32.5264,18.8696,37.9189,36.9165
	c0.8828,3.0029,3.9268,4.8203,6.9932,4.1885c2.4082-0.5015,4.8613-0.7554,7.3145-0.7666
	c19.999-0.0376,36.2432,16.1436,36.2813,36.1426c0.0293,14.8384-8.998,28.1919-22.7813,33.6968
	c-2.0645,0.8301-3.501,2.7222-3.7471,4.9326l-9.125,82.1455H108.3262l-9.1318-82.1455c-0.2471-2.2104-1.6836-4.1025-3.7471-4.9326
	C76.8916,121.6763,67.8945,100.5889,75.3506,82.0332z M90.8545,95.5669c-0.0068-13.3389,10.8008-24.1611,24.1357-24.1724
	c3.335,0,6.0352,2.7036,6.0352,6.0356c0,3.3315-2.7002,6.0356-6.0352,6.0356c-6.6572,0.0073-12.0566,5.4072-12.0635,12.0674
	c0,3.3354-2.708,6.0356-6.0361,6.0356C93.5693,101.5688,90.8701,98.8872,90.8545,95.5669z M151.1885,59.3232
	c0.0156-13.3237,10.8145-24.1274,24.1426-24.1387c3.3281,0,6.0283,2.7036,6.0283,6.0356s-2.7002,6.0356-6.0283,6.0356
	c-6.6641,0.0073-12.0645,5.4072-12.0713,12.0674c0,3.3354-2.708,6.0356-6.0361,6.0356
	C153.8887,65.3589,151.1885,62.6587,151.1885,59.3232z M217.5654,95.5332c0.0146-13.3242,10.8145-24.124,24.1426-24.1387
	c3.3281,0,6.0283,2.7036,6.0283,6.0356c0,3.3315-2.7002,6.0356-6.0283,6.0356c-6.6641,0.0073-12.0635,5.4072-12.0713,12.0674
	c0,3.3354-2.707,6.0356-6.0352,6.0356C220.2656,101.5688,217.5654,98.8687,217.5654,95.5332z M133.0889,261.4668
	c0,8.3398,6.7539,15.0928,15.0859,15.0928c8.3389,0,15.0918-6.7529,15.0918-15.0928c0-8.3311-6.7529-15.0771-15.0918-15.0771
	C139.8506,246.3896,133.0967,253.1426,133.0889,261.4668z M151.1963,261.4668c0,1.6758-1.3535,3.0215-3.0215,3.0215
	c-1.6602,0-3.0137-1.3457-3.0137-3.0215c0-1.6602,1.3535-3.0137,3.0137-3.0137
	C149.8428,258.4531,151.1963,259.8066,151.1963,261.4668z M193.416,261.4668c0,8.3398,6.7529,15.0928,15.085,15.0928
	c8.3389,0,15.0928-6.7529,15.0928-15.0928c0-8.3311-6.7539-15.0771-15.0928-15.0771
	C200.1768,246.3896,193.4229,253.1426,193.416,261.4668z M211.5303,261.4668h-0.0078c0,1.6758-1.3535,3.0215-3.0215,3.0215
	c-1.6602,0-3.0137-1.3457-3.0137-3.0215c0-1.6602,1.3535-3.0137,3.0137-3.0137
	C210.1689,258.4453,211.5225,259.7998,211.5303,261.4668z M297.293,299.7969c-2.1543-1.7275-5.2129-1.7646-7.4043-0.0967
	c-12.5879,7.8975-27.1494,12.0635-42.0029,12.0342c-17.2393,0.7695-33.7607-6.9482-44.2236-20.6797
	c-1.1445-1.4512-2.9023-2.3037-4.7568-2.2969h-41.4648c-1.8467-0.0068-3.6035,0.8457-4.748,2.2969
	c-10.0371,13.7539-26.3193,21.5244-43.3193,20.6797c-12.9834-0.0078-25.6162-4.2266-35.9971-12.0342
	c-2.6543-2.0049-6.4395-1.4805-8.4512,1.1738c-1.3379,1.7656-1.5996,4.1211-0.6875,6.1406
	C75.0811,330.8955,99.4717,355,129.3945,355c16.5215,0,34.9648-1.959,49.1523-15.3164C193.5654,353.3252,215.3066,355,230.9453,355
	c30.0889,0,57.5371-24.7334,68.0977-47.9854C300.1797,304.4863,299.4619,301.5098,297.293,299.7969z M230.916,342.9219
	c-23.7461,0-38.9365-5.0488-47.7764-15.8936c-2.1016-2.5801-5.9014-2.9609-8.4824-0.8672
	c-0.3135,0.2617-0.6055,0.5537-0.8594,0.8672c-9.1914,11.2939-22.0781,15.8936-44.418,15.8936
	c-16.8652-1.002-32.4443-9.3262-42.6465-22.7891c7.3076,2.4238,14.959,3.665,22.6543,3.665
	c19.6328,0.71,38.4805-7.7861,50.9473-22.9756h35.751c12.834,15.2119,31.9502,23.6787,51.8369,22.9756
	c9.7461-0.1348,19.4238-1.6602,28.7354-4.54C265.3418,333.1318,248.7832,341.7021,230.916,342.9219z"/>
</svg>
