<?xml version="1.0" encoding="utf-8"?>
<!-- Generator: Adobe Illustrator 16.0.3, SVG Export Plug-In . SVG Version: 6.00 Build 0)  -->
<!DOCTYPE svg PUBLIC "-//W3C//DTD SVG 1.0//EN" "http://www.w3.org/TR/2001/REC-SVG-20010904/DTD/svg10.dtd">
<svg version="1.0" id="Capa_1" xmlns="http://www.w3.org/2000/svg" xmlns:xlink="http://www.w3.org/1999/xlink" x="0px" y="0px"
	 width="360px" height="360px" viewBox="0 0 360 360" enable-background="new 0 0 360 360" xml:space="preserve">
<path d="M345.7891,308.9473c0,25.4375-20.6152,46.0527-46.0527,46.0527c-25.4365,0-46.0518-20.6152-46.0518-46.0527
	c0-3.957,0.6475-7.7266,1.5918-11.3867l-161.0313-86.709c-8.4277,9.2734-20.4629,15.2012-33.9814,15.2012
	c-25.4375,0-46.0527-20.6152-46.0527-46.0527c0-25.437,20.6152-46.0527,46.0527-46.0527c13.5186,0,25.5537,5.9277,33.9814,15.2012
	l161.0313-86.7085c-0.9443-3.6606-1.5918-7.4297-1.5918-11.3872C253.6846,25.6157,274.2998,5,299.7363,5
	c25.4375,0,46.0527,20.6157,46.0527,46.0527s-20.6152,46.0527-46.0527,46.0527c-13.5186,0-25.5537-5.9277-33.9814-15.2012
	l-161.0313,86.7085c0.9443,3.6611,1.5928,7.4297,1.5928,11.3872c0,3.957-0.6484,7.7266-1.5928,11.3867l161.0313,86.709
	c8.4277-9.2734,20.4629-15.2012,33.9814-15.2012C325.1738,262.8945,345.7891,283.5107,345.7891,308.9473z"/>
</svg>
