<?xml version="1.0" encoding="utf-8"?>
<!-- Generator: Adobe Illustrator 16.0.3, SVG Export Plug-In . SVG Version: 6.00 Build 0)  -->
<!DOCTYPE svg PUBLIC "-//W3C//DTD SVG 1.0//EN" "http://www.w3.org/TR/2001/REC-SVG-20010904/DTD/svg10.dtd">
<svg version="1.0" id="Capa_1" xmlns="http://www.w3.org/2000/svg" xmlns:xlink="http://www.w3.org/1999/xlink" x="0px" y="0px"
	 width="360px" height="360px" viewBox="0 0 360 360" enable-background="new 0 0 360 360" xml:space="preserve">
<path id="Grupo_1207" transform="translate(0.75 -2.25)" fill="none" d="M179.252,342.8135l-25.3779-23.0889
	C63.752,237.9854,4.2544,184.1016,4.2544,117.9478C3.7417,65.2949,45.9956,22.2119,98.6401,21.6992
	c0.6152-0.0171,1.2393-0.0171,1.8628,0c30.2998,0.2222,59.019,13.5688,78.749,36.5718
	c19.7217-23.0029,48.4492-36.3496,78.749-36.5718c52.6357-0.5127,95.7363,41.7329,96.249,94.3857c0,0.6152,0,1.2305,0,1.8628
	c0,66.1538-59.5068,120.0376-149.6201,201.9478L179.252,342.8135z"/>
</svg>
