<?xml version="1.0" encoding="utf-8"?>
<!-- Generator: Adobe Illustrator 16.0.3, SVG Export Plug-In . SVG Version: 6.00 Build 0)  -->
<!DOCTYPE svg PUBLIC "-//W3C//DTD SVG 1.0//EN" "http://www.w3.org/TR/2001/REC-SVG-20010904/DTD/svg10.dtd">
<svg version="1.0" id="Capa_1" xmlns="http://www.w3.org/2000/svg" xmlns:xlink="http://www.w3.org/1999/xlink" x="0px" y="0px"
	 width="360px" height="360px" viewBox="0 0 360 360" enable-background="new 0 0 360 360" xml:space="preserve">
<path id="Grupo_1131" transform="translate(0.75 -2.25)" fill="none" d="M179.2202,345.9443l-31.7944-28.917
	C61.0952,238.7168,4.2544,187.1621,4.2544,120.2988C3.7139,64.7852,48.5205,19.0957,104.1455,18.5557h1.9395
	c27.2559,0.1904,53.2715,10.5244,73.167,28.7109c19.8877-18.1865,45.9111-28.5205,73.1758-28.7109
	C308.4658,18.54,353.709,63.3545,354.25,118.4385v1.8604c0,66.752-56.6426,118.2432-142.3926,196.1875L179.2202,345.9443z
	 M105.9097,42.9736c-43.6855,0.4131-77.6504,35.0381-77.2368,77.1973c0,56.1816,53.6533,104.8428,134.8726,178.5107l15.7383,14.3076
	l15.397-13.8945c81.6885-74.2559,135.1504-122.8535,135.1504-178.7959v-1.7334c-0.3975-41.6348-34.6875-75.6074-76.4336-75.6074
	c-25.4521,0.1904-48.8213,11.0322-64.877,29.7754l-9.2686,10.8105l-9.2681-10.8105
	C153.9199,53.9902,130.5664,43.1484,105.9097,42.9736z"/>
</svg>
