<?xml version="1.0" encoding="utf-8"?>
<!-- Generator: Adobe Illustrator 16.0.3, SVG Export Plug-In . SVG Version: 6.00 Build 0)  -->
<!DOCTYPE svg PUBLIC "-//W3C//DTD SVG 1.0//EN" "http://www.w3.org/TR/2001/REC-SVG-20010904/DTD/svg10.dtd">
<svg version="1.0" id="Capa_1" xmlns="http://www.w3.org/2000/svg" xmlns:xlink="http://www.w3.org/1999/xlink" x="0px" y="0px"
	 width="360px" height="360px" viewBox="0 0 360 360" enable-background="new 0 0 360 360" xml:space="preserve">
<path fill="#35AC8E" d="M284.3604,102.897l-0.0068,0.0313c-7.6621-7.6689-16.1416-14.4888-25.292-20.3188l9.8672-17.0918
	l11.0439,6.3833c2.6113,1.5117,5.9629,0.6157,7.4668-2.0034c1.5117-2.6187,0.6152-5.9619-2.0029-7.4741l-31.3633-18.1055
	c-2.6182-1.5117-5.9619-0.6235-7.4736,1.9878c-1.5205,2.6187-0.624,5.9619,1.9873,7.4741l10.8564,6.2666l-9.8125,17.0371
	c-19.7969-10.6074-41.7676-16.5229-64.2061-17.2866v-0.6548c14.793-3.0239,24.3398-17.4663,21.3242-32.2593
	c-3.0244-14.8003-17.4668-24.3481-32.2671-21.3242c-14.793,3.0166-24.3403,17.4585-21.3242,32.2593
	c2.1978,10.7402,10.584,19.1265,21.3242,21.3242v0.6626C92.9961,62.8442,29.4058,131.3765,32.4531,212.8662
	c3.0474,81.4854,71.5796,145.0762,153.0645,142.0293c81.4863-3.0479,145.0771-71.5723,142.0293-153.0576
	C326.1523,164.5864,310.7275,129.2407,284.3604,102.897z M163.5391,32.3467c0-9.0645,7.3423-16.4141,16.4063-16.4141
	c9.0645,0,16.4141,7.3418,16.4219,16.4063c0,6.9521-4.3877,13.1563-10.9424,15.4785V32.3467c0-3.0166-2.4473-5.4717-5.4639-5.4717
	c-3.0239-0.0078-5.4712,2.4395-5.479,5.4561c0,0.0078,0,0.0078,0,0.0156v15.4707
	C167.9351,45.4951,163.5547,39.2988,163.5391,32.3467z M179.9531,344.0459c-75.5073,0-136.7134-61.2061-136.7134-136.7129
	c0-75.5049,61.2061-136.7183,136.7134-136.7183c75.5078,0,136.7139,61.2134,136.7139,136.7183
	C316.5811,282.8008,255.4219,343.9678,179.9531,344.0459z M287.1279,273.1133c-36.3438,59.1641-113.7764,77.667-172.9478,41.3154
	c-59.1714-36.3428-77.6665-113.7754-41.3232-172.9438c36.3506-59.1714,113.7837-77.6665,172.9478-41.3232
	c2.5713,1.582,3.374,4.9492,1.792,7.521c-1.582,2.5723-4.9492,3.375-7.5205,1.7925c-36.8584-22.6411-83.3179-22.6411-120.1753,0
	C65.8892,142.6616,48.9917,213.3574,82.1782,267.377c33.1865,54.0117,103.8774,70.9092,157.8979,37.7227
	c54.0117-33.1865,70.9092-103.8779,37.7217-157.9019c-1.582-2.5718-0.7793-5.939,1.793-7.521
	c2.5723-1.5898,5.9395-0.7871,7.5215,1.7847C311.9199,181.835,311.9355,232.7334,287.1279,273.1133z M256.5049,121.7354
	c-2.2441-2.019-2.4395-5.4717-0.4209-7.7241c2.0117-2.2524,5.4717-2.4395,7.7168-0.4287c3.4756,3.1177,6.7803,6.4224,9.8975,9.8984
	c2.0117,2.2524,1.8242,5.7051-0.4277,7.7236c-2.2529,2.0112-5.7061,1.8242-7.7246-0.4287
	C262.709,127.5962,259.6855,124.5801,256.5049,121.7354z M270.4717,156.457c-3.8809-6.8662-8.5264-13.2808-13.8574-19.103
	c-0.1553-0.2256-0.335-0.436-0.5303-0.6309c-0.1084-0.1016-0.2178-0.2109-0.335-0.3042
	c-11.3086-12.0806-25.3223-21.3008-40.9023-26.8892c-0.2412-0.1245-0.499-0.2339-0.7559-0.3271
	c-10.9736-3.8271-22.5166-5.7754-34.1377-5.7676c-3.0239,0-5.4712,2.4473-5.4712,5.4634v38.3071v32.8125v27.3452
	c0,1.4502,0.5767,2.8457,1.5977,3.874l69.6079,69.5996c2.1357,2.1357,5.5957,2.1357,7.7314,0.0078c0-0.0078,0-0.0078,0-0.0078
	c25.8213-25.8291,36.1875-63.3174,27.3096-98.7529c-0.0469-0.2256-0.0928-0.4521-0.1709-0.6699
	c-2.1592-8.3481-5.3545-16.3916-9.5166-23.9438C270.8926,157.1118,270.6982,156.7769,270.4717,156.457z M185.4248,114.5259
	c5.6973,0.335,11.3477,1.1924,16.8818,2.5718h0.0156l-16.8975,16.8896V114.5259z M185.4248,149.4502l28.6035-28.6035
	c4.0371,1.5977,7.958,3.4683,11.7217,5.6118l0.0078,0.0078l-40.333,40.3257V149.4502z M185.4551,182.2324l49.7021-49.7026
	c3.2891,2.4551,6.415,5.1128,9.3535,7.9731l0.0078,0.0078l-59.0635,59.0664V182.2324z M190.4434,210.0684l61.5107-61.4985
	c2.6182,3.2031,5.0264,6.5859,7.1934,10.1162v0.0078l-60.0527,60.0571L190.4434,210.0684z M206.8271,226.4824l57.7061-57.7109
	c1.8701,4.0918,3.4443,8.3164,4.707,12.6348v0.0078l-53.7393,53.7432L206.8271,226.4824z M249.4443,269.0918l-9.8047-9.8047
	l30.9102-30.8955C267.0586,243.5195,259.7939,257.5254,249.4443,269.0918z M272.9189,207.3398c0,1.0996,0,2.1826-0.0615,3.2666
	l-40.9502,40.9492l-8.6738-8.6748l48.751-48.7432C272.6074,198.5098,272.9189,202.9209,272.9189,207.3398z"/>
</svg>
