<?xml version="1.0" encoding="utf-8"?>
<!-- Generator: Adobe Illustrator 16.0.3, SVG Export Plug-In . SVG Version: 6.00 Build 0)  -->
<!DOCTYPE svg PUBLIC "-//W3C//DTD SVG 1.0//EN" "http://www.w3.org/TR/2001/REC-SVG-20010904/DTD/svg10.dtd">
<svg version="1.0" id="Capa_1" xmlns="http://www.w3.org/2000/svg" xmlns:xlink="http://www.w3.org/1999/xlink" x="0px" y="0px"
	 width="360px" height="360px" viewBox="0 0 360 360" enable-background="new 0 0 360 360" xml:space="preserve">
<path d="M269.3477,179.9648c0,49.3477-40.0098,89.3633-89.3633,89.3633c-19.5977,0.0508-38.6592-6.3916-54.1992-18.3223
	c-2.4531-1.8672-2.9199-5.376-1.0469-7.832c1.874-2.4443,5.377-2.9199,7.8262-1.04c13.5977,10.4385,30.2715,16.0908,47.4199,16.041
	c43.1816,0,78.1914-35.0156,78.1914-78.1924c0-43.1855-35.0098-78.1943-78.1914-78.1943c-43.1836,0-78.1924,35.0088-78.1924,78.1943
	c-0.0469,17.1475,5.5957,33.8154,16.042,47.4131c1.873,2.4561,1.4023,5.9658-1.0469,7.833
	c-2.4502,1.8672-5.9561,1.4033-7.8262-1.0527c-11.9375-15.54-18.3789-34.6016-18.3193-54.1934
	c0.0693-49.3203,40.04-89.2793,89.3604-89.3359l-0.0176-0.0498C229.3379,90.5967,269.3477,130.6055,269.3477,179.9648z
	 M299.1504,179.9961c0,65.7969-53.3438,119.1465-119.1484,119.1465c-65.8027,0-119.1465-53.3496-119.1465-119.1465
	c0-65.8076,53.3438-119.1514,119.1465-119.1514C245.7754,60.9199,299.0801,114.2197,299.1504,179.9961z M287.9512,179.9893
	c-0.0117-59.6348-48.3613-107.9658-107.998-107.9531C120.3184,72.0488,71.9873,120.4043,72,180.0391
	c0.0156,59.6377,48.3682,107.9619,108.002,107.9502c59.6016-0.0752,107.8867-48.3877,107.9492-107.9814
	C287.9512,180.002,287.9512,179.9961,287.9512,179.9893z M60.8242,66.4717v55.8252c-0.0127,8.7793-4.1357,17.0439-11.1406,22.332
	V282.374c0,9.2617-7.501,16.7559-16.7559,16.7559s-16.7559-7.4941-16.7559-16.7559V144.5977
	C9.1514,139.3154,5.0186,131.0508,5,122.2656V66.4404c0-3.083,2.5-5.583,5.5859-5.583c3.083,0,5.5859,2.5,5.5859,5.583v35.3721
	h11.1699V66.4404c0-3.083,2.5-5.583,5.5859-5.583s5.5859,2.5,5.5859,5.583v35.3604h11.1699v-35.373c0-3.082,2.5-5.583,5.583-5.583
	c0.0059,0,0.0127,0,0.0186,0C58.3682,60.8701,60.8496,63.3887,60.8242,66.4717z M49.6836,112.9854h-33.499v9.3174
	c0.0127,5.9844,3.2051,11.5049,8.3779,14.5068c1.7236,1.002,2.7852,2.8379,2.7852,4.8311v140.7461c0,3.083,2.5,5.5771,5.5859,5.5771
	c3.0869,0,5.5869-2.4941,5.5869-5.5771V141.6211c0-1.9922,1.0615-3.8281,2.7852-4.8311c5.1729-3.001,8.3652-8.5215,8.3779-14.5059
	V112.9854z M355,83.2021v199.1973c0,9.249-7.502,16.7559-16.7559,16.7559c-9.2559,0-16.7559-7.5068-16.7559-16.7559v-72.6113
	c0-3.083,2.5-5.5771,5.584-5.5771c3.0879,0,5.582,2.4941,5.582,5.5771v72.6113c0,3.083,2.5059,5.5898,5.5898,5.5898
	c3.082,0,5.5898-2.5068,5.5898-5.5898v-89.3545h-11.1797c-12.332-0.0254-22.3262-10.0166-22.3379-22.3486V83.1904
	c0.0117-12.3379,10.0059-22.333,22.3379-22.3457C344.998,60.8574,354.9941,70.8643,355,83.2021z M343.834,83.1592
	c-0.0137-6.166-5.0254-11.1602-11.1914-11.1475c-6.1719,0.0117-11.166,5.0186-11.1543,11.1904v87.4814
	c0.0059,6.166,5,11.167,11.166,11.1729h11.1797V83.2021C343.834,83.1904,343.834,83.1777,343.834,83.1592z"/>
</svg>
