<?xml version="1.0" encoding="utf-8"?>
<!-- Generator: Adobe Illustrator 16.0.3, SVG Export Plug-In . SVG Version: 6.00 Build 0)  -->
<!DOCTYPE svg PUBLIC "-//W3C//DTD SVG 1.0//EN" "http://www.w3.org/TR/2001/REC-SVG-20010904/DTD/svg10.dtd">
<svg version="1.0" id="Capa_1" xmlns="http://www.w3.org/2000/svg" xmlns:xlink="http://www.w3.org/1999/xlink" x="0px" y="0px"
	 width="360px" height="360px" viewBox="0 0 360 360" enable-background="new 0 0 360 360" xml:space="preserve">
<path d="M343.6865,289.1543c15.0645,15.0645,15.0645,39.4883,0,54.5293c-15.041,15.0889-39.4893,15.0889-54.5303,0
	l-109.165-109.1543L70.8608,343.6602c-15.0649,15.0645-39.4883,15.0645-54.5532,0.0234
	c-15.0527-15.0645-15.0527-39.4883,0.0117-54.5527L125.4619,180L16.3193,70.8696C1.2549,55.8052,1.2427,31.3813,16.3076,16.3164
	C31.3726,1.2637,55.7959,1.2637,70.8608,16.3286L179.9912,125.459l109.165-109.1543c15.041-15.0649,39.4893-15.0767,54.5303-0.0117
	c15.0645,15.0645,15.0645,39.4883,0,54.5527L234.5322,180L343.6865,289.1543z"/>
</svg>
