<?xml version="1.0" encoding="utf-8"?>
<!-- Generator: Adobe Illustrator 16.0.3, SVG Export Plug-In . SVG Version: 6.00 Build 0)  -->
<!DOCTYPE svg PUBLIC "-//W3C//DTD SVG 1.0//EN" "http://www.w3.org/TR/2001/REC-SVG-20010904/DTD/svg10.dtd">
<svg version="1.0" id="Capa_1" xmlns="http://www.w3.org/2000/svg" xmlns:xlink="http://www.w3.org/1999/xlink" x="0px" y="0px"
	 width="360px" height="360px" viewBox="0 0 360 360" enable-background="new 0 0 360 360" xml:space="preserve">
<path d="M346.2393,303.0967l-58.418-58.4541c-5.7939-5.7764-13.8047-8.7559-21.9795-8.1563
	c37.9834-52.7324,35.9307-124.3569-5.0137-174.8369C210.748-0.1113,120.0693-9.5752,58.3086,40.5146
	C-3.4697,90.604-12.9336,181.2832,37.165,243.0439c50.0801,61.7607,140.7593,71.2422,202.5381,21.1436
	c-0.0908,7.5566,2.8701,14.8594,8.2285,20.1992l0.5811,0.582v0.5078l0.2549-0.2539l57.6729,57.6553h0.0186
	c0.3271,0.3633,0.6719,0.6904,1.0166,1.0176c11.2627,10.7168,29.082,10.2627,39.7813-1.0176
	C357.9746,331.6152,357.502,313.8145,346.2393,303.0967z M149.0786,252.3809c-54.9307,0-99.4526-44.5039-99.4526-99.4258
	c0-0.0186,0-0.0454,0-0.064c0.0181-54.9033,44.5581-99.3979,99.4707-99.3799c54.9121,0.0093,99.416,44.5313,99.416,99.4438
	C248.5127,207.877,203.9902,252.3809,149.0786,252.3809z"/>
</svg>
