<?xml version="1.0" encoding="utf-8"?>
<!-- Generator: Adobe Illustrator 16.0.3, SVG Export Plug-In . SVG Version: 6.00 Build 0)  -->
<!DOCTYPE svg PUBLIC "-//W3C//DTD SVG 1.0//EN" "http://www.w3.org/TR/2001/REC-SVG-20010904/DTD/svg10.dtd">
<svg version="1.0" id="Capa_1" xmlns="http://www.w3.org/2000/svg" xmlns:xlink="http://www.w3.org/1999/xlink" x="0px" y="0px"
	 width="360px" height="360px" viewBox="0 0 360 360" enable-background="new 0 0 360 360" xml:space="preserve">
<path d="M90.9707,110.1758c-47.3838,0.0547-85.7793,38.4512-85.8291,85.8291c0,29.4189,13.9814,60.9883,41.5469,93.8955
	c4.0625,4.8848,8.1748,9.4229,12.0986,13.5547C40.9912,308.3203,30.29,317.04,30.29,327.2266
	C30.29,345.2598,61.5518,355,90.9707,355c29.4092,0,60.6709-9.7305,60.6709-27.7734c0-10.1465-10.6816-18.9063-28.4678-23.7715
	c7.8672-8.2734,15.21-17.0127,22.0068-26.1689c1.6846-2.2988,1.1895-5.5088-1.0898-7.1934
	c-2.2783-1.6748-5.499-1.1895-7.1738,1.0996c-8.0752,10.8506-16.9434,21.0859-26.5156,30.6279
	c-0.9609,0.4951-1.7441,1.2686-2.2393,2.2197c-7.4121,7.293-13.6543,12.6826-17.1914,15.6357
	c-3.498-2.9131-9.6416-8.2441-16.9541-15.4375c-0.5254-1.1396-1.4365-2.041-2.5762-2.5566
	c-23.2461-23.3447-56.0439-63.793-56.0439-105.6963c0.0205-41.7305,33.8584-75.5488,75.5938-75.5342
	c41.7061,0.0146,75.5146,33.8232,75.5342,75.5342c-0.7832,20.7686-7.1543,40.9424-18.4307,58.4014
	c-1.4463,2.4385-0.6436,5.5889,1.7939,7.0361c2.4375,1.4561,5.5889,0.6436,7.0352-1.7939
	c12.2373-19.0352,19.0938-41.0225,19.8672-63.6436C176.7305,148.6172,138.334,110.2305,90.9707,110.1758z M87.8193,330.3574
	c1.8535,1.4268,4.4395,1.4268,6.2822,0c7.2041-5.7471,14.0898-11.8809,20.6396-18.3506
	c17.3105,3.5273,26.625,10.3242,26.625,15.2197c0,3.6465-5.0137,7.9561-13.0693,11.2461
	c-11.9502,4.3896-24.6133,6.5098-37.3359,6.252c-30.7764,0-50.4063-10.374-50.4063-17.498c0-4.915,9.3145-11.7129,26.6348-15.2197
	C73.7393,318.4766,80.626,324.6104,87.8193,330.3574z M64.9697,188.5439c-2.3184,8.085-0.7227,16.8047,4.3008,23.543
	c8.8984,11.96,25.8027,14.4268,37.752,5.5293c11.9502-8.8984,14.4277-25.8027,5.5293-37.7471
	c-8.8984-11.9502-25.8027-14.4277-37.752-5.5293c-2.2295,1.5703-5.291,1.1299-6.9863-1.001
	c-1.7637-2.2246-1.3867-5.4551,0.833-7.2139c6.4404-4.835,14.2783-7.4414,22.3242-7.4209h0.0195
	c3.4785,0.0049,6.9463,0.4902,10.2949,1.4561c19.8076,5.6924,31.252,26.3623,25.5645,46.1797
	c-5.6973,19.7979-26.3662,31.252-46.1846,25.5449c-19.8066-5.6875-31.252-26.3574-25.5537-46.1748
	c0.0293-0.1191,0.0693-0.248,0.1084-0.377c0.8916-2.6895,3.7852-4.1563,6.4805-3.2695S65.8623,185.8486,64.9697,188.5439z
	 M335.4678,173.0215c0.0693-8.1543-7.6201-14.9316-20.8086-18.8906c2.6064-2.7988,5.3115-5.8262,7.9961-9.042
	c21.3633-25.5293,32.2031-50.0635,32.2031-72.9326C354.8584,35.0635,324.7861,5,287.6973,5
	c-26.9912,0-51.3564,16.1611-61.8594,41.0176c-1.0605,2.6299,0.208,5.623,2.834,6.6826c2.5762,1.041,5.499-0.1484,6.6191-2.6846
	c12.2471-28.9434,45.6289-42.4785,74.5723-30.2422c21.0459,8.9033,34.7305,29.5332,34.7402,52.3828
	c0,42.4238-44.54,83.0596-56.8955,93.5088c-2.7158-2.3037-7.0059-6.084-12.0293-10.9844c-0.4961-0.9854-1.2988-1.7832-2.2891-2.2734
	c-17.7266-17.8506-42.6074-48.5234-42.6074-80.251c0.0098-2.834-2.2891-5.1426-5.123-5.1523s-5.1426,2.2793-5.1523,5.1172
	c0,0.0107,0,0.0254,0,0.0352c0,22.8691,10.8398,47.4033,32.2031,72.9326c2.7051,3.2158,5.3906,6.2432,7.9961,9.042
	c-13.1875,3.9785-20.8672,10.7461-20.8672,18.8906c0,6.8721,5.5684,12.9258,15.6953,17.0586
	c20.7881,7.3027,43.4492,7.3027,64.2383,0C329.9189,185.9473,335.4678,179.9336,335.4678,173.0215z M287.7178,185.2539
	l-0.0098,0.0205c-24.2969,0-37.5439-8.1104-37.5439-12.2627c0-2.71,6.0342-7.6689,18.9053-10.4092
	c4.9248,4.8506,10.1064,9.4434,15.5068,13.7588c1.8428,1.4316,4.4297,1.4316,6.2822,0c5.4004-4.3154,10.5723-8.9082,15.4971-13.7588
	c4.9844,0.9365,9.7803,2.6709,14.209,5.1328c2.9531,1.7988,4.7168,3.7754,4.7168,5.2764
	C325.2715,177.1533,312.0234,185.2539,287.7178,185.2539z M317.5723,72.1367c-0.0195-16.4932-13.3867-29.8555-29.875-29.8701
	c-16.498,0-29.8643,13.3721-29.8643,29.8701s13.3662,29.8691,29.8643,29.8691S317.5723,88.6348,317.5723,72.1367z M268.0986,72.1367
	c0-10.8252,8.7783-19.6045,19.5986-19.6045c10.8311,0,19.6094,8.7793,19.6094,19.6045
	c-0.0195,10.8203-8.7891,19.5938-19.6094,19.6045C276.877,91.7412,268.0986,82.9619,268.0986,72.1367z M218.8027,178.0947
	c-1.249,0-2.4971,0.0801-3.7451,0.2432c-0.2578,0.0596-0.5352,0.0938-0.8027,0.1094c-2.834,0.1484-5.252-2.0264-5.4004-4.8555
	c-0.1484-2.834,2.0215-5.2471,4.8555-5.4004c1.6846-0.2227,3.3789-0.332,5.0732-0.332h2.3477l0.0205-0.0293
	c2.8135,0.0098,5.1025,2.2939,5.1123,5.1123c0.0098,2.834-2.2783,5.1426-5.1123,5.1523H218.8027z M209.2803,327.0283
	c0.0098,2.834-2.2793,5.1426-5.1123,5.1523h-6.7783c-2.8232-0.0098-5.1123-2.2988-5.1221-5.1133
	c-0.0107-2.834,2.2783-5.1523,5.1221-5.1523h6.7783C206.9814,321.915,209.2705,324.2139,209.2803,327.0283z M220.4082,244.6172
	c-2.834-0.0098-5.123-2.3184-5.1133-5.1523s2.3184-5.123,5.1523-5.123h6.7773c0.0107,0,0.0303,0,0.04,0
	c2.834,0.0195,5.123,2.3184,5.1133,5.1523c-0.0098,2.8438-2.3193,5.1328-5.1533,5.123h-6.7773
	C220.4375,244.6172,220.4277,244.6172,220.4082,244.6172z M187.6006,183.8721c1.5254-2.1211,3.2598-4.0771,5.1816-5.8467
	c2.0811-1.9219,5.3311-1.7881,7.2529,0.293c1.9131,2.0859,1.7842,5.3252-0.2969,7.2529c-1.4072,1.2881-2.6748,2.7344-3.7949,4.2803
	c-0.04,0.0596-0.0791,0.1191-0.1094,0.1592c-1.7041,2.2783-4.9141,2.7441-7.1934,1.0498
	C186.3711,189.3564,185.9063,186.1455,187.6006,183.8721z M236.4004,326.8496c0.0098,2.8438-2.2793,5.1523-5.1123,5.1523h-6.7783
	c-2.8232,0-5.1123-2.2891-5.1221-5.1123c-0.0107-2.834,2.2881-5.1328,5.1221-5.1533h6.7783
	C234.1016,321.7568,236.3906,324.0352,236.4004,326.8496z M182.1602,327.1074c0.0098,2.834-2.2793,5.1523-5.123,5.1523h-6.7773
	c-2.8135,0-5.1025-2.2988-5.1123-5.1133c-0.0107-2.833,2.2783-5.1426,5.1123-5.1523h6.7773
	C179.8613,322.0039,182.1504,324.293,182.1602,327.1074z M198.3613,238.7119c-2.21-1.3975-4.2705-3.0029-6.1533-4.8057
	c-0.1289-0.1191-0.2578-0.2383-0.377-0.3672c-1.9424-2.0703-1.8428-5.3213,0.2285-7.2627c2.0605-1.9424,5.3105-1.8428,7.2529,0.2275
	c1.377,1.3281,2.8936,2.5068,4.5078,3.5371l0.0205-0.0195c2.3975,1.5166,3.1113,4.6865,1.6045,7.0947
	C203.9297,239.5146,200.7588,240.2275,198.3613,238.7119z M187.2041,217.5566c-2.7646,0.5947-5.5-1.1689-6.1045-3.9434
	c-0.4756-2.418-0.7129-4.8955-0.7129-7.3721v-0.3965c0.04-2.8145,2.3281-5.0732,5.1426-5.0732h0.0889
	c2.834,0.0195,5.1035,2.3584,5.0732,5.1914v0.2783c0,1.8223,0.1689,3.626,0.5156,5.4102h-0.0303
	C191.6533,214.3662,189.8994,216.9619,187.2041,217.5566z M247.5381,244.6172c-2.8438-0.0098-5.1328-2.3184-5.123-5.1523
	s2.3184-5.123,5.1523-5.123h6.7773c0.0205,0,0.0303,0,0.04,0c2.834,0.0195,5.123,2.3184,5.1123,5.1523
	c-0.0098,2.8438-2.3184,5.1328-5.1523,5.123h-6.7773C247.5576,244.6172,247.5479,244.6172,247.5381,244.6172z M330.374,252.8516
	c-1.5654-1.2285-3.2197-2.3389-4.9639-3.3301c-2.4678-1.3965-3.3291-4.5381-1.9326-6.9951
	c1.4072-2.4775,4.5391-3.3389,7.0059-1.9424c2.1992,1.249,4.3008,2.6563,6.2822,4.2217h-0.0303
	c2.1113,1.7441,2.4775,4.8447,0.833,7.0352C335.8643,254.0996,332.6436,254.5557,330.374,252.8516z M317.7109,325.4229
	c0.3965,2.7939-1.5361,5.3809-4.3301,5.7969c-2.1504,0.2871-4.3105,0.4453-6.4707,0.4551h-1.0205
	c-2.8232-0.0098-5.1025-2.2881-5.1123-5.1221s2.2783-5.1328,5.1123-5.1533h0.9619c1.7041,0,3.3984-0.1182,5.0732-0.3564
	C314.7383,320.6572,317.3242,322.6191,317.7109,325.4229z M340.3623,310.9961c1.9521,2.0508,1.873,5.3008-0.1885,7.2529
	c-1.8232,1.7441-3.7852,3.3389-5.8652,4.7764c-0.0303,0.0293-0.0693,0.0586-0.0996,0.0791c-2.3486,1.585-5.5391,0.9609-7.124-1.3877
	c-1.5859-2.3584-0.9717-5.5488,1.3867-7.1338c1.6348-1.1299,3.1904-2.3984,4.6377-3.7656c2.0508-1.9619,5.291-1.8828,7.2529,0.1689
	V310.9961z M354.4424,292.0703c-0.4658,2.4766-1.1289,4.9346-1.9814,7.3125c-0.0195,0.0596-0.04,0.1094-0.0596,0.168
	c-1.001,2.6465-3.9639,3.9932-6.6191,2.9932c-2.6455-1.001-3.9834-3.9639-2.9824-6.6094c0.6641-1.8828,1.1895-3.8047,1.5557-5.7666
	c0.5449-2.7744,3.2207-4.5879,5.9951-4.0625C353.125,286.6406,354.9482,289.2959,354.4424,292.0703z M353.4121,269.5576h-0.0098
	c0.0391,0.1191,0.0791,0.2578,0.1084,0.377c0.6738,2.7539-1.0098,5.5381-3.7646,6.2227c-2.7549,0.6738-5.5391-1.0107-6.2129-3.7656
	c-0.5449-1.9229-1.249-3.7852-2.0908-5.5889c-0.0098-0.0391-0.0195-0.0596-0.0293-0.0791c-1.1797-2.5859-0.04-5.6279,2.5361-6.8174
	c2.5762-1.1689,5.6279-0.0391,6.7979,2.5469C351.8164,264.7422,352.709,267.1201,353.4121,269.5576z M274.6582,244.6172
	c-2.8438-0.0098-5.1328-2.3184-5.123-5.1523s2.3184-5.123,5.1523-5.123h6.7773c0.0205,0,0.0303,0,0.04,0
	c2.834,0.0195,5.123,2.3184,5.1123,5.1523c-0.0098,2.8438-2.3086,5.1328-5.1523,5.123h-6.7773
	C274.6777,244.6172,274.668,244.6172,274.6582,244.6172z M263.5205,326.7305c0.0098,2.834-2.2793,5.1533-5.1133,5.1533h-6.7773
	c-2.8232,0-5.1025-2.2891-5.1123-5.1133c-0.0098-2.834,2.2783-5.1426,5.1123-5.1523h6.7773
	C261.2314,321.6279,263.5107,323.917,263.5205,326.7305z M301.7783,244.667c-2.834-0.0098-5.123-2.3193-5.1133-5.1523
	c0.0098-2.834,2.3086-5.1328,5.1523-5.1133h4.8154c0.7236,0,1.4473,0,2.1807,0l0.0098,0.0098
	c2.6748,0.1689,4.7754,2.3486,4.8252,5.0332c0.0498,2.834-2.21,5.1729-5.0439,5.2227h-0.2373c-0.5752,0-1.1494,0-1.7344,0h-4.8154
	C301.7979,244.667,301.7881,244.667,301.7783,244.667z M290.6406,326.6123c0.0098,2.833-2.2793,5.1426-5.1133,5.1523H278.75
	c-2.8242-0.0098-5.1025-2.2988-5.1133-5.1133c-0.0098-2.834,2.2793-5.1426,5.1133-5.1523h6.7773
	C288.3516,321.5088,290.6309,323.7979,290.6406,326.6123z"/>
</svg>
