<?xml version="1.0" encoding="utf-8"?>
<!-- Generator: Adobe Illustrator 16.0.3, SVG Export Plug-In . SVG Version: 6.00 Build 0)  -->
<!DOCTYPE svg PUBLIC "-//W3C//DTD SVG 1.0//EN" "http://www.w3.org/TR/2001/REC-SVG-20010904/DTD/svg10.dtd">
<svg version="1.0" id="Capa_1" xmlns="http://www.w3.org/2000/svg" xmlns:xlink="http://www.w3.org/1999/xlink" x="0px" y="0px"
	 width="360px" height="360px" viewBox="0 0 360 360" enable-background="new 0 0 360 360" xml:space="preserve">
<path d="M355,63.3901c0,16.1045-13.0781,29.1587-29.1826,29.1587H34.1587C18.0542,92.5488,5,79.4946,5,63.3901
	c0-16.104,13.0542-29.1582,29.1587-29.1582h291.6587C341.9219,34.2319,355,47.2861,355,63.3901z M236.8779,150.8657H34.1587
	C18.0542,150.8657,5,163.9204,5,180.0244c0,16.0801,13.0542,29.1582,29.1587,29.1582h202.7192
	c16.1035,0,29.1582-13.0781,29.1582-29.1582C266.0361,163.9204,252.9814,150.8657,236.8779,150.8657z M178.5605,267.4512H34.1587
	C18.0542,267.4512,5,280.5303,5,296.6338c0,16.1045,13.0542,29.1348,29.1587,29.1348h144.4019
	c16.1045,0,29.1582-13.0303,29.1582-29.1348C207.7188,280.5303,194.665,267.4512,178.5605,267.4512z"/>
</svg>
