<?xml version="1.0" encoding="utf-8"?>
<!-- Generator: Adobe Illustrator 16.0.3, SVG Export Plug-In . SVG Version: 6.00 Build 0)  -->
<!DOCTYPE svg PUBLIC "-//W3C//DTD SVG 1.0//EN" "http://www.w3.org/TR/2001/REC-SVG-20010904/DTD/svg10.dtd">
<svg version="1.0" id="Capa_1" xmlns="http://www.w3.org/2000/svg" xmlns:xlink="http://www.w3.org/1999/xlink" x="0px" y="0px"
	 width="360px" height="360px" viewBox="0 0 360 360" enable-background="new 0 0 360 360" xml:space="preserve">
<g>
	<path d="M270.7813,175.1807l-128.3335-87.5c-2.6602-1.8115-6.2891-1.125-8.1006,1.5381c-0.6606,0.9683-1.0137,2.1108-1.0137,3.2813
		v175c0,3.2246,2.6147,5.833,5.833,5.833c1.1738,0,2.313-0.3525,3.2813-1.0137l128.3335-87.5
		c2.666-1.8174,3.3496-5.4458,1.5322-8.1064C271.9033,176.1123,271.3848,175.5908,270.7813,175.1807z M145,256.46V103.543
		L257.1436,180L145,256.46z"/>
	<path d="M180,5C83.3511,5,5,83.3511,5,180c0,96.6484,78.3511,175,175,175c96.6484,0,175-78.3516,175-175
		C354.8916,83.397,276.6035,5.1084,180,5z M180,343.333c-90.2061,0-163.3335-73.127-163.3335-163.333S89.7939,16.6665,180,16.6665
		S343.333,89.7939,343.333,180C343.2305,270.166,270.166,343.2305,180,343.333z"/>
</g>
</svg>
