<?xml version="1.0" encoding="utf-8"?>
<!-- Generator: Adobe Illustrator 16.0.3, SVG Export Plug-In . SVG Version: 6.00 Build 0)  -->
<!DOCTYPE svg PUBLIC "-//W3C//DTD SVG 1.0//EN" "http://www.w3.org/TR/2001/REC-SVG-20010904/DTD/svg10.dtd">
<svg version="1.0" id="Capa_1" xmlns="http://www.w3.org/2000/svg" xmlns:xlink="http://www.w3.org/1999/xlink" x="0px" y="0px"
	 width="360px" height="360px" viewBox="0 0 360 360" enable-background="new 0 0 360 360" xml:space="preserve">
<path d="M267.5,180c0,48.3301-39.1699,87.5-87.5,87.5c-48.3213,0-87.5-39.1699-87.5-87.5c0-48.3213,39.1787-87.5,87.5-87.5
	C228.3301,92.5,267.5,131.6787,267.5,180z M355,180c0,96.6602-78.3398,175-175,175C83.3486,355,5,276.6602,5,180
	C5,83.3486,83.3486,5,180,5C276.6602,5,355,83.3486,355,180z M320,180c0-77.3232-62.6855-140-140-140
	c-77.3232,0-140,62.6768-140,140c0,77.3145,62.6768,140,140,140C257.3145,320,320,257.3145,320,180z"/>
</svg>
