<?xml version="1.0" encoding="utf-8"?>
<!-- Generator: Adobe Illustrator 16.0.3, SVG Export Plug-In . SVG Version: 6.00 Build 0)  -->
<!DOCTYPE svg PUBLIC "-//W3C//DTD SVG 1.0//EN" "http://www.w3.org/TR/2001/REC-SVG-20010904/DTD/svg10.dtd">
<svg version="1.0" id="Capa_1" xmlns="http://www.w3.org/2000/svg" xmlns:xlink="http://www.w3.org/1999/xlink" x="0px" y="0px"
	 width="360px" height="360px" viewBox="0 0 360 360" enable-background="new 0 0 360 360" xml:space="preserve">
<path fill="#11172D" d="M179.9946,5C83.3599,5,5,83.3599,5,180.0146c0,0,0,0,0,0.02C4.96,276.6201,83.2197,354.96,179.8149,355
	c0.0601,0,0.1201,0,0.1797,0C276.6602,355,355,276.6602,355,180.0146C355,83.3599,276.6602,5,179.9946,5z M179.9946,320.0088
	c-77.2998,0-139.9839-62.7041-139.9839-139.9941c0-0.04,0-0.0596,0-0.0996c0.04-77.2803,62.7041-139.9243,139.9839-139.9043
	c77.3101,0,140.0142,62.6841,140.0142,140.0039C320.0088,257.3047,257.3047,320.0088,179.9946,320.0088z M188.7725,184.3936
	l78.7295,46.7178l-13.1162,21.5146l-91.8862-55.1357V92.5176h26.2729V184.3936z"/>
</svg>
