<?xml version="1.0" encoding="utf-8"?>
<!-- Generator: Adobe Illustrator 16.0.3, SVG Export Plug-In . SVG Version: 6.00 Build 0)  -->
<!DOCTYPE svg PUBLIC "-//W3C//DTD SVG 1.0//EN" "http://www.w3.org/TR/2001/REC-SVG-20010904/DTD/svg10.dtd">
<svg version="1.0" id="Capa_1" xmlns="http://www.w3.org/2000/svg" xmlns:xlink="http://www.w3.org/1999/xlink" x="0px" y="0px"
	 width="360px" height="360px" viewBox="0 0 360 360" enable-background="new 0 0 360 360" xml:space="preserve">
<path fill="#11172D" d="M267.9775,41.4458C244.5459,17.9775,213.3818,5.0269,179.9009,5C111.498,5,55.8022,60.6597,55.7388,129.27
	c0,87.1392,109.3369,209.2017,113.9873,214.3569L180,355l10.2744-11.373c4.6494-5.1553,113.9863-127.2178,113.9863-214.3389
	C304.2969,96.123,291.4092,64.9224,267.9775,41.4458z M180,313.0928c-26.7754-32.083-96.5752-121.71-96.5752-183.9941
	c0.0449-53.1631,43.3218-96.4131,96.7646-96.4131c25.7656,0.0273,49.9912,10.085,68.1953,28.3257
	c18.2051,18.2407,28.2266,42.4746,28.1904,68.2588C276.5752,191.4189,206.7666,281.0098,180,313.0928z M180,75.9897
	c-29.3799,0-53.2803,23.9004-53.2803,53.2803S150.6201,182.5596,180,182.5596s53.2803-23.9097,53.2803-53.2896
	S209.3799,75.9897,180,75.9897z M180,154.874c-14.1133,0-25.5947-11.4819-25.5947-25.604c0-14.1133,11.4814-25.5947,25.5947-25.5947
	s25.5947,11.4814,25.5947,25.5947C205.5947,143.3921,194.1133,154.874,180,154.874z"/>
</svg>
